<?xml version="1.0" encoding="UTF-8" standalone="no"?>
<!-- Created with Inkscape (http://www.inkscape.org/) -->

<svg
   width="100mm"
   height="50mm"
   viewBox="0 0 100 50"
   version="1.1"
   id="svg1"
   inkscape:version="1.3 (0e150ed6c4, 2023-07-21)"
   sodipodi:docname="cd.svg"
   xmlns:inkscape="http://www.inkscape.org/namespaces/inkscape"
   xmlns:sodipodi="http://sodipodi.sourceforge.net/DTD/sodipodi-0.dtd"
   xmlns="http://www.w3.org/2000/svg"
   xmlns:svg="http://www.w3.org/2000/svg"
   xmlns:ns5="http://www.iki.fi/pav/software/textext/">
  <sodipodi:namedview
     id="namedview1"
     pagecolor="#282c34"
     bordercolor="#282c34"
     borderopacity="0.24705882"
     inkscape:showpageshadow="2"
     inkscape:pageopacity="0.0"
     inkscape:pagecheckerboard="0"
     inkscape:deskcolor="#d1d1d1"
     inkscape:document-units="mm"
     inkscape:zoom="2.4001203"
     inkscape:cx="191.86538"
     inkscape:cy="109.36952"
     inkscape:window-width="1900"
     inkscape:window-height="1035"
     inkscape:window-x="9"
     inkscape:window-y="9"
     inkscape:window-maximized="1"
     inkscape:current-layer="layer1" />
  <defs
     id="defs1">
    <filter
       style="color-interpolation-filters:sRGB;"
       inkscape:label="Colorize"
       id="filter78"
       x="0"
       y="0"
       width="1"
       height="1">
      <feComposite
         in2="SourceGraphic"
         operator="arithmetic"
         k1="4.37473"
         k2="3.68596"
         result="composite1"
         id="feComposite77" />
      <feColorMatrix
         in="composite1"
         values="1"
         type="saturate"
         result="colormatrix1"
         id="feColorMatrix77" />
      <feFlood
         flood-opacity="1"
         flood-color="rgb(171,178,191)"
         result="flood1"
         id="feFlood77" />
      <feBlend
         in="flood1"
         in2="colormatrix1"
         mode="normal"
         result="blend1"
         id="feBlend77" />
      <feBlend
         in2="blend1"
         mode="screen"
         result="blend2"
         id="feBlend78" />
      <feColorMatrix
         in="blend2"
         values="1"
         type="saturate"
         result="colormatrix2"
         id="feColorMatrix78" />
      <feComposite
         in="colormatrix2"
         in2="SourceGraphic"
         operator="in"
         k2="1"
         result="fbSourceGraphic"
         id="feComposite78" />
      <feColorMatrix
         result="fbSourceGraphicAlpha"
         in="fbSourceGraphic"
         values="0 0 0 -1 0 0 0 0 -1 0 0 0 0 -1 0 0 0 0 1 0"
         id="feColorMatrix79" />
      <feComposite
         id="feComposite79"
         in2="fbSourceGraphic"
         operator="arithmetic"
         k1="4.37473"
         k2="3.68596"
         result="composite1"
         in="fbSourceGraphic" />
      <feColorMatrix
         id="feColorMatrix80"
         in="composite1"
         values="1"
         type="saturate"
         result="colormatrix1" />
      <feFlood
         id="feFlood80"
         flood-opacity="1"
         flood-color="rgb(171,178,191)"
         result="flood1" />
      <feBlend
         id="feBlend80"
         in="flood1"
         in2="colormatrix1"
         mode="normal"
         result="blend1" />
      <feBlend
         id="feBlend81"
         in2="blend1"
         mode="screen"
         result="blend2" />
      <feColorMatrix
         id="feColorMatrix81"
         in="blend2"
         values="1"
         type="saturate"
         result="colormatrix2" />
      <feComposite
         id="feComposite81"
         in="colormatrix2"
         in2="fbSourceGraphic"
         operator="in"
         k2="1"
         result="fbSourceGraphic" />
      <feColorMatrix
         result="fbSourceGraphicAlpha"
         in="fbSourceGraphic"
         values="0 0 0 -1 0 0 0 0 -1 0 0 0 0 -1 0 0 0 0 1 0"
         id="feColorMatrix102" />
      <feComposite
         id="feComposite102"
         in2="fbSourceGraphic"
         operator="arithmetic"
         k1="10"
         k2="10"
         result="composite1"
         in="fbSourceGraphic" />
      <feColorMatrix
         id="feColorMatrix103"
         in="composite1"
         values="1"
         type="saturate"
         result="colormatrix1" />
      <feFlood
         id="feFlood103"
         flood-opacity="1"
         flood-color="rgb(171,178,191)"
         result="flood1" />
      <feBlend
         id="feBlend103"
         in="flood1"
         in2="colormatrix1"
         mode="normal"
         result="blend1" />
      <feBlend
         id="feBlend104"
         in2="blend1"
         mode="lighten"
         result="blend2" />
      <feColorMatrix
         id="feColorMatrix104"
         in="blend2"
         values="1"
         type="saturate"
         result="colormatrix2" />
      <feComposite
         id="feComposite104"
         in="colormatrix2"
         in2="fbSourceGraphic"
         operator="in"
         k2="1"
         result="composite2" />
    </filter>
  </defs>
  <g
     inkscape:label="Layer 1"
     inkscape:groupmode="layer"
     id="layer1"
     style="fill:#008080">
    <g
       transform="matrix(0.9188101,0,0,0.9188101,9.8804937,2.8774337)"
       ns5:version="1.9.0"
       ns5:texconverter="pdflatex"
       ns5:pdfconverter="inkscape"
       ns5:text="\\[\\begin{tikzcd}\n\t&amp; B \\\\\n\tA &amp; C &amp; 0\n\t\\arrow[&quot;f&quot;', from=2-1, to=2-2]\n\t\\arrow[from=2-2, to=2-3]\n\t\\arrow[two heads, from=1-2, to=2-2]\n\t\\arrow[dashed, from=1-2, to=2-1]\n\\end{tikzcd}\\]"
       ns5:preamble="/usr/share/inkscape/extensions/textext/default_packages.tex"
       ns5:scale="0.9999999999999999"
       ns5:alignment="middle center"
       ns5:stroke-to-path="0"
       ns5:inkscapeversion="1.3"
       id="g8332"
       ns5:jacobian_sqrt="0.352778"
       style="fill:#282c34;filter:url(#filter78);fill-opacity:1">
      <defs
         id="id-1b4c14b6-a08f-4ca4-b9d3-1a5f97b97d4d">
        <g
           id="id-8de816fb-cb87-4b2c-8789-89797654967a">
          <g
             id="id-5a7539e0-8cf7-4610-9765-97c509fe11df" />
          <g
             id="id-5141b318-c4e0-465a-8719-989cd4216e4c">
            <path
               d="M 1.59375,-0.78125 C 1.5,-0.390625 1.46875,-0.3125 0.6875,-0.3125 c -0.171875,0 -0.265625,0 -0.265625,0.203125 C 0.421875,0 0.515625,0 0.6875,0 H 4.25 C 5.828125,0 7,-1.171875 7,-2.15625 7,-2.875 6.421875,-3.453125 5.453125,-3.5625 6.484375,-3.75 7.53125,-4.484375 7.53125,-5.4375 c 0,-0.734375 -0.65625,-1.375 -1.84375,-1.375 H 2.328125 c -0.1875,0 -0.28125,0 -0.28125,0.203125 0,0.109375 0.09375,0.109375 0.28125,0.109375 0.015625,0 0.203125,0 0.375,0.015625 0.171875,0.03125 0.265625,0.03125 0.265625,0.171875 0,0.03125 -0.015625,0.0625 -0.03125,0.1875 z m 1.5,-2.875 0.625,-2.46875 C 3.8125,-6.46875 3.828125,-6.5 4.25,-6.5 h 1.296875 c 0.875,0 1.078125,0.59375 1.078125,1.03125 0,0.875 -0.859375,1.8125 -2.0625,1.8125 z m -0.4375,3.34375 c -0.140625,0 -0.15625,0 -0.21875,0 -0.109375,-0.015625 -0.140625,-0.03125 -0.140625,-0.109375 0,-0.03125 0,-0.046875 0.0625,-0.21875 l 0.6875,-2.78125 h 1.875 c 0.953125,0 1.15625,0.734375 1.15625,1.15625 C 6.078125,-1.28125 5.1875,-0.3125 4,-0.3125 Z m 0,0"
               id="id-07e814a3-17b1-4f62-9485-405acee96515" />
          </g>
          <g
             id="id-a7216aa0-4f32-4405-b34c-4834514c3fa0">
            <path
               d="M 1.78125,-1.140625 C 1.390625,-0.484375 1,-0.34375 0.5625,-0.3125 0.4375,-0.296875 0.34375,-0.296875 0.34375,-0.109375 0.34375,-0.046875 0.40625,0 0.484375,0 0.75,0 1.0625,-0.03125 1.328125,-0.03125 c 0.34375,0 0.6875,0.03125 1,0.03125 0.0625,0 0.1875,0 0.1875,-0.1875 0,-0.109375 -0.078125,-0.125 -0.15625,-0.125 -0.21875,-0.015625 -0.46875,-0.09375 -0.46875,-0.34375 0,-0.125 0.0625,-0.234375 0.140625,-0.375 l 0.765625,-1.265625 h 2.5 c 0.015625,0.203125 0.15625,1.5625 0.15625,1.65625 0,0.296875 -0.515625,0.328125 -0.71875,0.328125 C 4.59375,-0.3125 4.5,-0.3125 4.5,-0.109375 4.5,0 4.609375,0 4.640625,0 5.046875,0 5.46875,-0.03125 5.875,-0.03125 6.125,-0.03125 6.765625,0 7.015625,0 7.0625,0 7.1875,0 7.1875,-0.203125 7.1875,-0.3125 7.09375,-0.3125 6.953125,-0.3125 6.34375,-0.3125 6.34375,-0.375 6.3125,-0.671875 l -0.609375,-6.21875 c -0.015625,-0.203125 -0.015625,-0.25 -0.1875,-0.25 -0.15625,0 -0.203125,0.078125 -0.265625,0.171875 z M 2.984375,-2.609375 4.9375,-5.90625 5.265625,-2.609375 Z m 0,0"
               id="id-7ffbd419-6905-47b1-8848-0c32119ccd43" />
          </g>
          <g
             id="id-23a5c60f-3f61-4ee8-b37d-8abd69791f8e">
            <path
               d="m 7.578125,-6.921875 c 0,-0.03125 -0.015625,-0.109375 -0.109375,-0.109375 -0.03125,0 -0.046875,0.015625 -0.15625,0.125 L 6.625,-6.140625 C 6.53125,-6.28125 6.078125,-7.03125 4.96875,-7.03125 2.734375,-7.03125 0.5,-4.828125 0.5,-2.515625 0.5,-0.875 1.671875,0.21875 3.203125,0.21875 c 0.859375,0 1.625,-0.390625 2.15625,-0.859375 0.921875,-0.8125 1.09375,-1.71875 1.09375,-1.75 C 6.453125,-2.5 6.34375,-2.5 6.328125,-2.5 c -0.0625,0 -0.109375,0.03125 -0.125,0.109375 -0.09375,0.28125 -0.328125,1 -1.015625,1.578125 -0.6875,0.546875 -1.3125,0.71875 -1.828125,0.71875 -0.890625,0 -1.953125,-0.515625 -1.953125,-2.0625 0,-0.578125 0.203125,-2.1875 1.203125,-3.359375 0.609375,-0.703125 1.546875,-1.203125 2.4375,-1.203125 1.015625,0 1.609375,0.765625 1.609375,1.921875 0,0.40625 -0.03125,0.40625 -0.03125,0.515625 0,0.09375 0.109375,0.09375 0.140625,0.09375 0.125,0 0.125,-0.015625 0.1875,-0.203125 z m 0,0"
               id="id-71228215-97b3-4a7f-8374-0f26f60982d0" />
          </g>
          <g
             id="id-a256fbe0-0a36-4b8d-82b8-0508eecf3736" />
          <g
             id="id-57c7283d-c399-4aa9-969e-3a10b70c49eb">
            <path
               d="m 4.578125,-3.1875 c 0,-0.796875 -0.046875,-1.59375 -0.390625,-2.328125 -0.453125,-0.96875 -1.28125,-1.125 -1.6875,-1.125 -0.609375,0 -1.328125,0.265625 -1.75,1.1875 -0.3125,0.6875 -0.359375,1.46875 -0.359375,2.265625 0,0.75 0.03125,1.640625 0.453125,2.40625 0.421875,0.796875 1.15625,1 1.640625,1 0.53125,0 1.296875,-0.203125 1.734375,-1.15625 0.3125,-0.6875 0.359375,-1.46875 0.359375,-2.25 z M 2.484375,0 C 2.09375,0 1.5,-0.25 1.328125,-1.203125 1.21875,-1.796875 1.21875,-2.71875 1.21875,-3.3125 c 0,-0.640625 0,-1.296875 0.078125,-1.828125 0.1875,-1.1875 0.9375,-1.28125 1.1875,-1.28125 0.328125,0 0.984375,0.1875 1.171875,1.171875 0.109375,0.5625 0.109375,1.3125 0.109375,1.9375 0,0.75 0,1.421875 -0.109375,2.0625 C 3.5,-0.296875 2.9375,0 2.484375,0 Z m 0,0"
               id="id-27ebb314-374d-4eeb-97f8-a0e837aac92b" />
          </g>
          <g
             id="id-5c79a6ef-c20c-4ae0-b9e3-e309024cf0c9" />
          <g
             id="id-689c3f2f-bd3f-4a36-98fa-cdb7f0cc52ac">
            <path
               d="M 2.84375,-2.75 H 3.515625 C 3.65625,-2.75 3.75,-2.75 3.75,-2.90625 3.75,-3 3.65625,-3 3.53125,-3 H 2.890625 c 0.15625,-0.890625 0.203125,-1.203125 0.265625,-1.40625 0.03125,-0.15625 0.1875,-0.296875 0.359375,-0.296875 0,0 0.1875,0 0.328125,0.078125 -0.296875,0.09375 -0.3125,0.34375 -0.3125,0.375 0,0.15625 0.125,0.265625 0.28125,0.265625 0.1875,0 0.390625,-0.15625 0.390625,-0.421875 0,-0.328125 -0.328125,-0.5 -0.6875,-0.5 -0.3125,0 -0.65625,0.171875 -0.84375,0.515625 C 2.53125,-4.125 2.484375,-3.8125 2.328125,-3 H 1.78125 c -0.140625,0 -0.234375,0 -0.234375,0.15625 0,0.09375 0.09375,0.09375 0.21875,0.09375 H 2.28125 c 0,0.046875 -0.4375,2.546875 -0.609375,3.296875 -0.03125,0.15625 -0.15625,0.671875 -0.484375,0.671875 -0.015625,0 -0.171875,0 -0.3125,-0.078125 0.28125,-0.09375 0.3125,-0.34375 0.3125,-0.375 C 1.1875,0.609375 1.0625,0.5 0.90625,0.5 c -0.1875,0 -0.390625,0.15625 -0.390625,0.421875 0,0.3125 0.328125,0.5 0.671875,0.5 0.4375,0 0.75,-0.453125 0.828125,-0.609375 0.25,-0.46875 0.421875,-1.328125 0.4375,-1.40625 z m 0,0"
               id="id-e036f0e7-4f64-4a1f-ae6f-c325da060aaa" />
          </g>
        </g>
      </defs>
      <g
         fill="#000000"
         fill-opacity="1"
         id="id-463f6a9a-ef70-4bb8-8abd-cf8b0ecd0b34"
         transform="translate(-263.224,-139.403)"
         style="fill:#282c34;fill-opacity:1">
        <g
           transform="translate(302.841,146.215)"
           id="g7384"
           style="fill:#282c34;fill-opacity:1">
          <path
             d="M 1.59375,-0.78125 C 1.5,-0.390625 1.46875,-0.3125 0.6875,-0.3125 c -0.171875,0 -0.265625,0 -0.265625,0.203125 C 0.421875,0 0.515625,0 0.6875,0 H 4.25 C 5.828125,0 7,-1.171875 7,-2.15625 7,-2.875 6.421875,-3.453125 5.453125,-3.5625 6.484375,-3.75 7.53125,-4.484375 7.53125,-5.4375 c 0,-0.734375 -0.65625,-1.375 -1.84375,-1.375 H 2.328125 c -0.1875,0 -0.28125,0 -0.28125,0.203125 0,0.109375 0.09375,0.109375 0.28125,0.109375 0.015625,0 0.203125,0 0.375,0.015625 0.171875,0.03125 0.265625,0.03125 0.265625,0.171875 0,0.03125 -0.015625,0.0625 -0.03125,0.1875 z m 1.5,-2.875 0.625,-2.46875 C 3.8125,-6.46875 3.828125,-6.5 4.25,-6.5 h 1.296875 c 0.875,0 1.078125,0.59375 1.078125,1.03125 0,0.875 -0.859375,1.8125 -2.0625,1.8125 z m -0.4375,3.34375 c -0.140625,0 -0.15625,0 -0.21875,0 -0.109375,-0.015625 -0.140625,-0.03125 -0.140625,-0.109375 0,-0.03125 0,-0.046875 0.0625,-0.21875 l 0.6875,-2.78125 h 1.875 c 0.953125,0 1.15625,0.734375 1.15625,1.15625 C 6.078125,-1.28125 5.1875,-0.3125 4,-0.3125 Z m 0,0"
             id="id-b05c923c-c7bc-41d9-8c83-451c3935d453"
             style="fill:#282c34;fill-opacity:1" />
        </g>
      </g>
      <g
         fill="#000000"
         fill-opacity="1"
         id="id-5a6932a3-e7dd-4902-a52b-68b93918d4e5"
         transform="translate(-263.224,-139.403)"
         style="fill:#282c34;fill-opacity:1">
        <g
           transform="translate(262.88,178.247)"
           id="g5953"
           style="fill:#282c34;fill-opacity:1">
          <path
             d="M 1.78125,-1.140625 C 1.390625,-0.484375 1,-0.34375 0.5625,-0.3125 0.4375,-0.296875 0.34375,-0.296875 0.34375,-0.109375 0.34375,-0.046875 0.40625,0 0.484375,0 0.75,0 1.0625,-0.03125 1.328125,-0.03125 c 0.34375,0 0.6875,0.03125 1,0.03125 0.0625,0 0.1875,0 0.1875,-0.1875 0,-0.109375 -0.078125,-0.125 -0.15625,-0.125 -0.21875,-0.015625 -0.46875,-0.09375 -0.46875,-0.34375 0,-0.125 0.0625,-0.234375 0.140625,-0.375 l 0.765625,-1.265625 h 2.5 c 0.015625,0.203125 0.15625,1.5625 0.15625,1.65625 0,0.296875 -0.515625,0.328125 -0.71875,0.328125 C 4.59375,-0.3125 4.5,-0.3125 4.5,-0.109375 4.5,0 4.609375,0 4.640625,0 5.046875,0 5.46875,-0.03125 5.875,-0.03125 6.125,-0.03125 6.765625,0 7.015625,0 7.0625,0 7.1875,0 7.1875,-0.203125 7.1875,-0.3125 7.09375,-0.3125 6.953125,-0.3125 6.34375,-0.3125 6.34375,-0.375 6.3125,-0.671875 l -0.609375,-6.21875 c -0.015625,-0.203125 -0.015625,-0.25 -0.1875,-0.25 -0.15625,0 -0.203125,0.078125 -0.265625,0.171875 z M 2.984375,-2.609375 4.9375,-5.90625 5.265625,-2.609375 Z m 0,0"
             id="id-e359c5a0-b73f-4b29-b6d5-b403dc50231f"
             style="fill:#282c34;fill-opacity:1" />
        </g>
      </g>
      <g
         fill="#000000"
         fill-opacity="1"
         id="id-0dfdd8f5-78b9-4de0-826b-f838a3f7c7fd"
         transform="translate(-263.224,-139.403)"
         style="fill:#282c34;fill-opacity:1">
        <g
           transform="translate(302.953,178.247)"
           id="g4955"
           style="fill:#282c34;fill-opacity:1">
          <path
             d="m 7.578125,-6.921875 c 0,-0.03125 -0.015625,-0.109375 -0.109375,-0.109375 -0.03125,0 -0.046875,0.015625 -0.15625,0.125 L 6.625,-6.140625 C 6.53125,-6.28125 6.078125,-7.03125 4.96875,-7.03125 2.734375,-7.03125 0.5,-4.828125 0.5,-2.515625 0.5,-0.875 1.671875,0.21875 3.203125,0.21875 c 0.859375,0 1.625,-0.390625 2.15625,-0.859375 0.921875,-0.8125 1.09375,-1.71875 1.09375,-1.75 C 6.453125,-2.5 6.34375,-2.5 6.328125,-2.5 c -0.0625,0 -0.109375,0.03125 -0.125,0.109375 -0.09375,0.28125 -0.328125,1 -1.015625,1.578125 -0.6875,0.546875 -1.3125,0.71875 -1.828125,0.71875 -0.890625,0 -1.953125,-0.515625 -1.953125,-2.0625 0,-0.578125 0.203125,-2.1875 1.203125,-3.359375 0.609375,-0.703125 1.546875,-1.203125 2.4375,-1.203125 1.015625,0 1.609375,0.765625 1.609375,1.921875 0,0.40625 -0.03125,0.40625 -0.03125,0.515625 0,0.09375 0.109375,0.09375 0.140625,0.09375 0.125,0 0.125,-0.015625 0.1875,-0.203125 z m 0,0"
             id="id-0e61f093-07c3-4cff-b2b0-c1c13c7e63de"
             style="fill:#282c34;fill-opacity:1" />
        </g>
      </g>
      <g
         fill="#000000"
         fill-opacity="1"
         id="id-a038a1a5-1bea-4895-8080-bb0552543f36"
         transform="translate(-263.224,-139.403)"
         style="fill:#282c34;fill-opacity:1">
        <g
           transform="translate(343.387,178.247)"
           id="g853"
           style="fill:#282c34;fill-opacity:1">
          <path
             d="m 4.578125,-3.1875 c 0,-0.796875 -0.046875,-1.59375 -0.390625,-2.328125 -0.453125,-0.96875 -1.28125,-1.125 -1.6875,-1.125 -0.609375,0 -1.328125,0.265625 -1.75,1.1875 -0.3125,0.6875 -0.359375,1.46875 -0.359375,2.265625 0,0.75 0.03125,1.640625 0.453125,2.40625 0.421875,0.796875 1.15625,1 1.640625,1 0.53125,0 1.296875,-0.203125 1.734375,-1.15625 0.3125,-0.6875 0.359375,-1.46875 0.359375,-2.25 z M 2.484375,0 C 2.09375,0 1.5,-0.25 1.328125,-1.203125 1.21875,-1.796875 1.21875,-2.71875 1.21875,-3.3125 c 0,-0.640625 0,-1.296875 0.078125,-1.828125 0.1875,-1.1875 0.9375,-1.28125 1.1875,-1.28125 0.328125,0 0.984375,0.1875 1.171875,1.171875 0.109375,0.5625 0.109375,1.3125 0.109375,1.9375 0,0.75 0,1.421875 -0.109375,2.0625 C 3.5,-0.296875 2.9375,0 2.484375,0 Z m 0,0"
             id="id-024dfb16-1a84-4513-b250-d4b78f999063"
             style="fill:#282c34;fill-opacity:1" />
        </g>
      </g>
      <path
         fill="none"
         stroke-width="0.39848"
         stroke-linecap="butt"
         stroke-linejoin="miter"
         stroke="#000000"
         stroke-opacity="1"
         stroke-miterlimit="10"
         d="M 11.616089,36.355317 H 34.842651"
         id="id-4656cbad-372a-4b62-828e-7cb0fe9514a8"
         style="fill:#282c34;fill-opacity:1" />
      <path
         fill="none"
         stroke-width="0.39848"
         stroke-linecap="round"
         stroke-linejoin="round"
         stroke="#000000"
         stroke-opacity="1"
         stroke-miterlimit="10"
         d="m 32.967651,33.964692 c 0.378906,1.433593 1.222656,2.109375 2.074219,2.390624 -0.851563,0.277344 -1.695313,0.957032 -2.074219,2.390626"
         id="id-bda5edf2-8f53-4743-a9b7-27d345e88da7"
         style="fill:#282c34;fill-opacity:1" />
      <g
         fill="#000000"
         fill-opacity="1"
         id="id-bc9de02b-63da-4dc4-be2e-9ed048600c9a"
         transform="translate(-263.224,-139.403)"
         style="fill:#282c34;fill-opacity:1">
        <g
           transform="translate(284.319,182.944)"
           id="g8958"
           style="fill:#282c34;fill-opacity:1">
          <path
             d="M 2.84375,-2.75 H 3.515625 C 3.65625,-2.75 3.75,-2.75 3.75,-2.90625 3.75,-3 3.65625,-3 3.53125,-3 H 2.890625 c 0.15625,-0.890625 0.203125,-1.203125 0.265625,-1.40625 0.03125,-0.15625 0.1875,-0.296875 0.359375,-0.296875 0,0 0.1875,0 0.328125,0.078125 -0.296875,0.09375 -0.3125,0.34375 -0.3125,0.375 0,0.15625 0.125,0.265625 0.28125,0.265625 0.1875,0 0.390625,-0.15625 0.390625,-0.421875 0,-0.328125 -0.328125,-0.5 -0.6875,-0.5 -0.3125,0 -0.65625,0.171875 -0.84375,0.515625 C 2.53125,-4.125 2.484375,-3.8125 2.328125,-3 H 1.78125 c -0.140625,0 -0.234375,0 -0.234375,0.15625 0,0.09375 0.09375,0.09375 0.21875,0.09375 H 2.28125 c 0,0.046875 -0.4375,2.546875 -0.609375,3.296875 -0.03125,0.15625 -0.15625,0.671875 -0.484375,0.671875 -0.015625,0 -0.171875,0 -0.3125,-0.078125 0.28125,-0.09375 0.3125,-0.34375 0.3125,-0.375 C 1.1875,0.609375 1.0625,0.5 0.90625,0.5 c -0.1875,0 -0.390625,0.15625 -0.390625,0.421875 0,0.3125 0.328125,0.5 0.671875,0.5 0.4375,0 0.75,-0.453125 0.828125,-0.609375 0.25,-0.46875 0.421875,-1.328125 0.4375,-1.40625 z m 0,0"
             id="id-9dcb2918-9e4e-4edf-bd4f-6aa18632250a"
             style="fill:#282c34;fill-opacity:1" />
        </g>
      </g>
      <path
         fill="none"
         stroke-width="0.39848"
         stroke-linecap="butt"
         stroke-linejoin="miter"
         stroke="#000000"
         stroke-opacity="1"
         stroke-miterlimit="10"
         d="M 52.049682,36.355317 H 75.276245"
         id="id-198fb938-138e-417a-a3de-f3a14b01e6fc"
         style="fill:#282c34;fill-opacity:1" />
      <path
         fill="none"
         stroke-width="0.39848"
         stroke-linecap="round"
         stroke-linejoin="round"
         stroke="#000000"
         stroke-opacity="1"
         stroke-miterlimit="10"
         d="m 73.405151,33.964692 c 0.375,1.433593 1.21875,2.109375 2.070313,2.390624 -0.851563,0.277344 -1.695313,0.957032 -2.070313,2.390626"
         id="id-113caa06-b570-4f84-94ee-8bae1d3f6718"
         style="fill:#282c34;fill-opacity:1" />
      <path
         fill="none"
         stroke-width="0.39848"
         stroke-linecap="butt"
         stroke-linejoin="miter"
         stroke="#000000"
         stroke-opacity="1"
         stroke-miterlimit="10"
         d="M 43.647339,10.656098 V 27.792817"
         id="id-562641f1-2e0c-4f8c-a1f1-3608a7c2dcd2"
         style="fill:#282c34;fill-opacity:1" />
      <path
         fill="none"
         stroke-width="0.39848"
         stroke-linecap="round"
         stroke-linejoin="round"
         stroke="#000000"
         stroke-opacity="1"
         stroke-miterlimit="10"
         d="m 46.037964,24.484223 c -1.4375,0.378906 -2.113281,1.222656 -2.390625,2.074218 -0.28125,-0.851562 -0.957031,-1.695312 -2.394531,-2.074218"
         id="id-a8b2a78d-e508-4fe4-802f-e6b19a4a280a"
         style="fill:#282c34;fill-opacity:1" />
      <path
         fill="none"
         stroke-width="0.39848"
         stroke-linecap="round"
         stroke-linejoin="round"
         stroke="#000000"
         stroke-opacity="1"
         stroke-miterlimit="10"
         d="m 46.037964,25.921723 c -1.4375,0.378906 -2.113281,1.222656 -2.390625,2.070312 -0.28125,-0.847656 -0.957031,-1.691406 -2.394531,-2.070312"
         id="id-a23d4759-b67f-42b7-9a17-c547c79ecb64"
         style="fill:#282c34;fill-opacity:1" />
      <path
         fill="none"
         stroke-width="0.39848"
         stroke-linecap="butt"
         stroke-linejoin="miter"
         stroke="#000000"
         stroke-opacity="1"
         stroke-dasharray="2.78941, 1.59395"
         stroke-miterlimit="10"
         d="M 35.686401,10.656098 11.928589,29.562348"
         id="id-39b28d07-e174-4655-a2be-1587ec09de06"
         style="fill:#282c34;fill-opacity:1" />
      <path
         fill="none"
         stroke-width="0.398452"
         stroke-linecap="round"
         stroke-linejoin="round"
         stroke="#000000"
         stroke-opacity="1"
         stroke-miterlimit="10"
         d="m 14.881714,30.265473 c -1.1875,-0.886719 -2.269531,-0.890626 -3.109375,-0.582032 0.492188,-0.746094 0.730468,-1.800781 0.132813,-3.160156"
         id="id-1408f58c-b9a4-4a92-bf9d-2dc4bc908ebb"
         style="fill:#282c34;fill-opacity:1" />
    </g>
  </g>
</svg>
