<?xml version="1.0" encoding="UTF-8" standalone="no"?>
<!-- Created with Inkscape (http://www.inkscape.org/) -->

<svg
   width="62.758854mm"
   height="31.724178mm"
   viewBox="0 0 62.758854 31.724178"
   version="1.1"
   id="svg1"
   inkscape:version="1.3 (0e150ed6c4, 2023-07-21)"
   sodipodi:docname="2o3.svg"
   xmlns:inkscape="http://www.inkscape.org/namespaces/inkscape"
   xmlns:sodipodi="http://sodipodi.sourceforge.net/DTD/sodipodi-0.dtd"
   xmlns="http://www.w3.org/2000/svg"
   xmlns:svg="http://www.w3.org/2000/svg"
   xmlns:ns7="http://www.iki.fi/pav/software/textext/">
  <sodipodi:namedview
     id="namedview1"
     pagecolor="#282a37"
     bordercolor="#000000"
     borderopacity="0.25"
     inkscape:showpageshadow="2"
     inkscape:pageopacity="0.0"
     inkscape:pagecheckerboard="0"
     inkscape:deskcolor="#d1d1d1"
     inkscape:document-units="mm"
     inkscape:zoom="2.4001203"
     inkscape:cx="100.20331"
     inkscape:cy="23.540487"
     inkscape:window-width="1900"
     inkscape:window-height="1035"
     inkscape:window-x="9"
     inkscape:window-y="9"
     inkscape:window-maximized="1"
     inkscape:current-layer="layer1" />
  <defs
     id="defs1">
    <filter
       style="color-interpolation-filters:sRGB"
       inkscape:label="Colorize"
       id="filter2"
       x="0"
       y="0"
       width="1"
       height="1">
      <feComposite
         in2="SourceGraphic"
         operator="arithmetic"
         k1="0"
         k2="0"
         result="composite1"
         id="feComposite1"
         k3="0"
         k4="0" />
      <feColorMatrix
         in="composite1"
         values="1"
         type="saturate"
         result="colormatrix1"
         id="feColorMatrix1" />
      <feFlood
         flood-opacity="1"
         flood-color="rgb(248,248,242)"
         result="flood1"
         id="feFlood1" />
      <feBlend
         in="flood1"
         in2="colormatrix1"
         mode="normal"
         result="blend1"
         id="feBlend1" />
      <feBlend
         in2="blend1"
         mode="normal"
         result="blend2"
         id="feBlend2" />
      <feColorMatrix
         in="blend2"
         values="1"
         type="saturate"
         result="colormatrix2"
         id="feColorMatrix2" />
      <feComposite
         in="colormatrix2"
         in2="SourceGraphic"
         operator="in"
         result="composite2"
         id="feComposite2" />
    </filter>
    <filter
       style="color-interpolation-filters:sRGB"
       inkscape:label="Colorize"
       id="filter4"
       x="0"
       y="0"
       width="1"
       height="1">
      <feComposite
         in2="SourceGraphic"
         operator="arithmetic"
         k1="0"
         k2="0"
         result="composite1"
         id="feComposite3"
         k3="0"
         k4="0" />
      <feColorMatrix
         in="composite1"
         values="1"
         type="saturate"
         result="colormatrix1"
         id="feColorMatrix3" />
      <feFlood
         flood-opacity="1"
         flood-color="rgb(248,248,242)"
         result="flood1"
         id="feFlood3" />
      <feBlend
         in="flood1"
         in2="colormatrix1"
         mode="normal"
         result="blend1"
         id="feBlend3" />
      <feBlend
         in2="blend1"
         mode="normal"
         result="blend2"
         id="feBlend4" />
      <feColorMatrix
         in="blend2"
         values="1"
         type="saturate"
         result="colormatrix2"
         id="feColorMatrix4" />
      <feComposite
         in="colormatrix2"
         in2="SourceGraphic"
         operator="in"
         result="composite2"
         id="feComposite4" />
    </filter>
  </defs>
  <g
     inkscape:label="Layer 1"
     inkscape:groupmode="layer"
     id="layer1"
     transform="translate(-14.402183,-6.7737651)">
    <g
       transform="matrix(0.705556,0,0,0.705556,14.402448,6.7741179)"
       ns7:version="1.9.0"
       ns7:texconverter="pdflatex"
       ns7:pdfconverter="inkscape"
       ns7:text="\\[\\begin{tikzcd}\n\t&amp; Y \\\\\n\tX &amp;&amp; Z\n\t\\arrow[&quot;gf&quot;', from=2-1, to=2-3]\n\t\\arrow[&quot;f&quot;, from=2-1, to=1-2]\n\t\\arrow[&quot;g&quot;, from=1-2, to=2-3]\n\\end{tikzcd}\\]"
       ns7:preamble="/usr/share/inkscape/extensions/textext/default_packages.tex"
       ns7:scale="2.0"
       ns7:alignment="middle center"
       ns7:stroke-to-path="0"
       ns7:inkscapeversion="1.3"
       id="g8356"
       ns7:jacobian_sqrt="0.705556"
       style="filter:url(#filter4)">
      <defs
         id="id-50356a1f-3b20-40cf-89bf-7d5500d2a2f1">
        <g
           id="id-a7c379cb-8ac4-4b9f-a59e-cd0a5608c076">
          <g
             id="id-02880ba5-f444-40fa-8db8-3b817fa7f754" />
          <g
             id="id-cebcb99a-2217-4f67-87d0-407813a66c59">
            <path
               d="M 5.953125,-5.671875 6.09375,-5.8125 C 6.390625,-6.109375 6.71875,-6.453125 7.390625,-6.5 7.5,-6.515625 7.59375,-6.515625 7.59375,-6.6875 c 0,-0.078125 -0.046875,-0.125 -0.125,-0.125 -0.265625,0 -0.546875,0.03125 -0.8125,0.03125 -0.34375,0 -0.6875,-0.03125 -1,-0.03125 -0.0625,0 -0.1875,0 -0.1875,0.1875 0,0.109375 0.09375,0.125 0.140625,0.125 0.078125,0 0.359375,0.015625 0.359375,0.234375 0,0.171875 -0.234375,0.421875 -0.265625,0.46875 L 3.390625,-3.125 2.296875,-6.09375 C 2.234375,-6.234375 2.234375,-6.25 2.234375,-6.265625 2.234375,-6.5 2.71875,-6.5 2.828125,-6.5 c 0.125,0 0.234375,0 0.234375,-0.203125 0,-0.109375 -0.125,-0.109375 -0.15625,-0.109375 -0.28125,0 -0.96875,0.03125 -1.25,0.03125 -0.25,0 -0.875,-0.03125 -1.125,-0.03125 -0.046875,0 -0.1875,0 -0.1875,0.203125 C 0.34375,-6.5 0.453125,-6.5 0.578125,-6.5 c 0.59375,0 0.640625,0.09375 0.734375,0.34375 L 2.53125,-2.875 c 0.015625,0.03125 0.046875,0.140625 0.046875,0.15625 0,0.03125 -0.40625,1.640625 -0.453125,1.828125 C 2,-0.34375 1.984375,-0.3125 1.1875,-0.3125 c -0.1875,0 -0.265625,0 -0.265625,0.203125 C 0.921875,0 1.03125,0 1.0625,0 c 0.265625,0 0.96875,-0.03125 1.25,-0.03125 0.28125,0 1,0.03125 1.28125,0.03125 0.0625,0 0.1875,0 0.1875,-0.203125 C 3.78125,-0.3125 3.6875,-0.3125 3.5,-0.3125 c -0.015625,0 -0.203125,0 -0.375,-0.015625 C 2.90625,-0.34375 2.84375,-0.375 2.84375,-0.484375 c 0,-0.078125 0.09375,-0.421875 0.140625,-0.625 l 0.359375,-1.40625 c 0.046875,-0.203125 0.0625,-0.21875 0.140625,-0.3125 z m 0,0"
               id="id-2859952a-e969-4099-a65c-bf92dd9300fc" />
          </g>
          <g
             id="id-5b7a7049-9ef0-40b2-b5a1-219a15b64105">
            <path
               d="M 4.828125,-4.09375 4,-6.078125 c -0.03125,-0.078125 -0.046875,-0.125 -0.046875,-0.125 0,-0.0625 0.15625,-0.25 0.578125,-0.296875 0.109375,-0.015625 0.203125,-0.015625 0.203125,-0.1875 0,-0.125 -0.125,-0.125 -0.15625,-0.125 -0.40625,0 -0.828125,0.03125 -1.25,0.03125 -0.25,0 -0.859375,-0.03125 -1.109375,-0.03125 -0.0625,0 -0.1875,0 -0.1875,0.203125 C 2.03125,-6.5 2.140625,-6.5 2.265625,-6.5 c 0.59375,0 0.65625,0.09375 0.75,0.3125 l 1.171875,2.78125 -2.109375,2.265625 -0.125,0.109375 C 1.46875,-0.5 1,-0.34375 0.484375,-0.3125 c -0.125,0.015625 -0.21875,0.015625 -0.21875,0.203125 0,0.015625 0,0.109375 0.140625,0.109375 0.296875,0 0.625,-0.03125 0.921875,-0.03125 C 1.703125,-0.03125 2.09375,0 2.453125,0 2.515625,0 2.625,0 2.625,-0.203125 2.625,-0.296875 2.53125,-0.3125 2.515625,-0.3125 c -0.09375,0 -0.40625,-0.03125 -0.40625,-0.3125 0,-0.15625 0.15625,-0.3125 0.265625,-0.4375 L 3.40625,-2.140625 4.296875,-3.125 l 1,2.390625 c 0.046875,0.109375 0.0625,0.109375 0.0625,0.140625 0,0.078125 -0.203125,0.25 -0.578125,0.28125 C 4.671875,-0.296875 4.578125,-0.296875 4.578125,-0.125 4.578125,0 4.6875,0 4.71875,0 5,0 5.703125,-0.03125 5.984375,-0.03125 6.234375,-0.03125 6.84375,0 7.09375,0 c 0.0625,0 0.1875,0 0.1875,-0.1875 0,-0.125 -0.109375,-0.125 -0.1875,-0.125 -0.65625,0 -0.6875,-0.03125 -0.859375,-0.4375 C 5.859375,-1.671875 5.1875,-3.234375 4.953125,-3.828125 5.625,-4.53125 6.671875,-5.71875 7,-5.984375 7.28125,-6.234375 7.671875,-6.46875 8.265625,-6.5 c 0.125,-0.015625 0.21875,-0.015625 0.21875,-0.203125 0,0 0,-0.109375 -0.125,-0.109375 -0.296875,0 -0.640625,0.03125 -0.9375,0.03125 -0.375,0 -0.75,-0.03125 -1.109375,-0.03125 -0.0625,0 -0.1875,0 -0.1875,0.203125 0,0.0625 0.046875,0.09375 0.109375,0.109375 0.09375,0.015625 0.40625,0.03125 0.40625,0.3125 0,0.140625 -0.109375,0.265625 -0.1875,0.359375 z m 0,0"
               id="id-ea93ac12-eaf9-4061-8bf6-dd2d0700c260" />
          </g>
          <g
             id="id-cc2b80ee-5e5d-4c8a-922e-9532973e3420">
            <path
               d="m 7.171875,-6.5625 c 0.015625,-0.046875 0.03125,-0.09375 0.03125,-0.15625 0,-0.09375 -0.046875,-0.09375 -0.25,-0.09375 H 2.75 c -0.234375,0 -0.25,0.015625 -0.3125,0.203125 L 1.890625,-4.8125 c -0.015625,0.046875 -0.03125,0.125 -0.03125,0.140625 0,0 0,0.109375 0.125,0.109375 0.09375,0 0.109375,-0.078125 0.125,-0.109375 C 2.5,-5.84375 3.015625,-6.5 4.5625,-6.5 h 1.625 L 0.625,-0.265625 c 0,0 -0.046875,0.140625 -0.046875,0.171875 C 0.578125,0 0.640625,0 0.828125,0 H 5.15625 c 0.25,0 0.25,-0.015625 0.3125,-0.203125 L 6.1875,-2.40625 c 0,-0.03125 0.03125,-0.109375 0.03125,-0.140625 0,-0.0625 -0.03125,-0.109375 -0.125,-0.109375 -0.09375,0 -0.109375,0.03125 -0.171875,0.25 C 5.484375,-1.0625 5,-0.34375 3.3125,-0.34375 H 1.609375 Z m 0,0"
               id="id-044744c2-65d3-439c-b95b-4d6188e17cfe" />
          </g>
          <g
             id="id-80d15b56-a163-4efb-9e4b-2637bc27a364" />
          <g
             id="id-fe7f12ef-67b5-4ce4-9387-6f82734bc65d">
            <path
               d="m 3.703125,-2.578125 c 0.03125,-0.09375 0.03125,-0.125 0.03125,-0.140625 0,-0.15625 -0.125,-0.21875 -0.234375,-0.21875 -0.15625,0 -0.296875,0.125 -0.328125,0.265625 -0.109375,-0.1875 -0.34375,-0.40625 -0.71875,-0.40625 -0.859375,0 -1.78125,0.9375 -1.78125,1.9375 0,0.71875 0.484375,1.140625 1.0625,1.140625 0.328125,0 0.625,-0.15625 0.875,-0.375 L 2.453125,0.25 C 2.375,0.546875 2.328125,0.734375 2.0625,0.96875 c -0.3125,0.25 -0.609375,0.25 -0.78125,0.25 -0.3125,0 -0.40625,-0.015625 -0.53125,-0.046875 0.171875,-0.078125 0.21875,-0.25 0.21875,-0.34375 0,-0.171875 -0.125,-0.25 -0.265625,-0.25 C 0.5,0.578125 0.296875,0.734375 0.296875,1 c 0,0.421875 0.609375,0.421875 1,0.421875 1.09375,0 1.546875,-0.5625 1.65625,-0.953125 z M 2.75,-0.921875 c -0.03125,0.09375 -0.03125,0.109375 -0.15625,0.25 C 2.359375,-0.375 2.015625,-0.1875 1.75,-0.1875 c -0.34375,0 -0.515625,-0.3125 -0.515625,-0.671875 0,-0.296875 0.1875,-1.078125 0.375,-1.390625 0.28125,-0.484375 0.609375,-0.625 0.84375,-0.625 0.5,0 0.625,0.515625 0.625,0.59375 0,0.015625 0,0.015625 -0.015625,0.09375 z m 0,0"
               id="id-c5936b47-bc30-417d-a548-47447fd6074e" />
          </g>
          <g
             id="id-3c35a38f-4024-4120-9736-48f301efe3d1">
            <path
               d="M 2.84375,-2.75 H 3.515625 C 3.65625,-2.75 3.75,-2.75 3.75,-2.90625 3.75,-3 3.65625,-3 3.53125,-3 H 2.890625 c 0.15625,-0.890625 0.203125,-1.203125 0.265625,-1.40625 0.03125,-0.15625 0.1875,-0.296875 0.359375,-0.296875 0,0 0.1875,0 0.328125,0.078125 -0.296875,0.09375 -0.3125,0.34375 -0.3125,0.375 0,0.15625 0.125,0.265625 0.28125,0.265625 0.1875,0 0.390625,-0.15625 0.390625,-0.421875 0,-0.328125 -0.328125,-0.5 -0.6875,-0.5 -0.3125,0 -0.65625,0.171875 -0.84375,0.515625 C 2.53125,-4.125 2.484375,-3.8125 2.328125,-3 H 1.78125 c -0.140625,0 -0.234375,0 -0.234375,0.15625 0,0.09375 0.09375,0.09375 0.21875,0.09375 H 2.28125 c 0,0.046875 -0.4375,2.546875 -0.609375,3.296875 -0.03125,0.15625 -0.15625,0.671875 -0.484375,0.671875 -0.015625,0 -0.171875,0 -0.3125,-0.078125 0.28125,-0.09375 0.3125,-0.34375 0.3125,-0.375 C 1.1875,0.609375 1.0625,0.5 0.90625,0.5 c -0.1875,0 -0.390625,0.15625 -0.390625,0.421875 0,0.3125 0.328125,0.5 0.671875,0.5 0.4375,0 0.75,-0.453125 0.828125,-0.609375 0.25,-0.46875 0.421875,-1.328125 0.4375,-1.40625 z m 0,0"
               id="id-f22540d9-a0bd-483a-ab83-0513a254b763" />
          </g>
        </g>
      </defs>
      <g
         fill="#000000"
         fill-opacity="1"
         id="id-159fe400-f311-452f-88dc-06686c8233e0"
         transform="translate(-261.127,-139.403)">
        <g
           transform="translate(302.386,146.215)"
           id="g8341">
          <path
             d="M 5.953125,-5.671875 6.09375,-5.8125 C 6.390625,-6.109375 6.71875,-6.453125 7.390625,-6.5 7.5,-6.515625 7.59375,-6.515625 7.59375,-6.6875 c 0,-0.078125 -0.046875,-0.125 -0.125,-0.125 -0.265625,0 -0.546875,0.03125 -0.8125,0.03125 -0.34375,0 -0.6875,-0.03125 -1,-0.03125 -0.0625,0 -0.1875,0 -0.1875,0.1875 0,0.109375 0.09375,0.125 0.140625,0.125 0.078125,0 0.359375,0.015625 0.359375,0.234375 0,0.171875 -0.234375,0.421875 -0.265625,0.46875 L 3.390625,-3.125 2.296875,-6.09375 C 2.234375,-6.234375 2.234375,-6.25 2.234375,-6.265625 2.234375,-6.5 2.71875,-6.5 2.828125,-6.5 c 0.125,0 0.234375,0 0.234375,-0.203125 0,-0.109375 -0.125,-0.109375 -0.15625,-0.109375 -0.28125,0 -0.96875,0.03125 -1.25,0.03125 -0.25,0 -0.875,-0.03125 -1.125,-0.03125 -0.046875,0 -0.1875,0 -0.1875,0.203125 C 0.34375,-6.5 0.453125,-6.5 0.578125,-6.5 c 0.59375,0 0.640625,0.09375 0.734375,0.34375 L 2.53125,-2.875 c 0.015625,0.03125 0.046875,0.140625 0.046875,0.15625 0,0.03125 -0.40625,1.640625 -0.453125,1.828125 C 2,-0.34375 1.984375,-0.3125 1.1875,-0.3125 c -0.1875,0 -0.265625,0 -0.265625,0.203125 C 0.921875,0 1.03125,0 1.0625,0 c 0.265625,0 0.96875,-0.03125 1.25,-0.03125 0.28125,0 1,0.03125 1.28125,0.03125 0.0625,0 0.1875,0 0.1875,-0.203125 C 3.78125,-0.3125 3.6875,-0.3125 3.5,-0.3125 c -0.015625,0 -0.203125,0 -0.375,-0.015625 C 2.90625,-0.34375 2.84375,-0.375 2.84375,-0.484375 c 0,-0.078125 0.09375,-0.421875 0.140625,-0.625 l 0.359375,-1.40625 c 0.046875,-0.203125 0.0625,-0.21875 0.140625,-0.3125 z m 0,0"
             id="id-1a979756-de91-4640-a540-581c0b3b5e7c" />
        </g>
      </g>
      <g
         fill="#000000"
         fill-opacity="1"
         id="id-a7669ab9-71fd-425c-a9dc-8ba308e0fb1c"
         transform="translate(-261.127,-139.403)">
        <g
           transform="translate(260.861,178.247)"
           id="g3564">
          <path
             d="M 4.828125,-4.09375 4,-6.078125 c -0.03125,-0.078125 -0.046875,-0.125 -0.046875,-0.125 0,-0.0625 0.15625,-0.25 0.578125,-0.296875 0.109375,-0.015625 0.203125,-0.015625 0.203125,-0.1875 0,-0.125 -0.125,-0.125 -0.15625,-0.125 -0.40625,0 -0.828125,0.03125 -1.25,0.03125 -0.25,0 -0.859375,-0.03125 -1.109375,-0.03125 -0.0625,0 -0.1875,0 -0.1875,0.203125 C 2.03125,-6.5 2.140625,-6.5 2.265625,-6.5 c 0.59375,0 0.65625,0.09375 0.75,0.3125 l 1.171875,2.78125 -2.109375,2.265625 -0.125,0.109375 C 1.46875,-0.5 1,-0.34375 0.484375,-0.3125 c -0.125,0.015625 -0.21875,0.015625 -0.21875,0.203125 0,0.015625 0,0.109375 0.140625,0.109375 0.296875,0 0.625,-0.03125 0.921875,-0.03125 C 1.703125,-0.03125 2.09375,0 2.453125,0 2.515625,0 2.625,0 2.625,-0.203125 2.625,-0.296875 2.53125,-0.3125 2.515625,-0.3125 c -0.09375,0 -0.40625,-0.03125 -0.40625,-0.3125 0,-0.15625 0.15625,-0.3125 0.265625,-0.4375 L 3.40625,-2.140625 4.296875,-3.125 l 1,2.390625 c 0.046875,0.109375 0.0625,0.109375 0.0625,0.140625 0,0.078125 -0.203125,0.25 -0.578125,0.28125 C 4.671875,-0.296875 4.578125,-0.296875 4.578125,-0.125 4.578125,0 4.6875,0 4.71875,0 5,0 5.703125,-0.03125 5.984375,-0.03125 6.234375,-0.03125 6.84375,0 7.09375,0 c 0.0625,0 0.1875,0 0.1875,-0.1875 0,-0.125 -0.109375,-0.125 -0.1875,-0.125 -0.65625,0 -0.6875,-0.03125 -0.859375,-0.4375 C 5.859375,-1.671875 5.1875,-3.234375 4.953125,-3.828125 5.625,-4.53125 6.671875,-5.71875 7,-5.984375 7.28125,-6.234375 7.671875,-6.46875 8.265625,-6.5 c 0.125,-0.015625 0.21875,-0.015625 0.21875,-0.203125 0,0 0,-0.109375 -0.125,-0.109375 -0.296875,0 -0.640625,0.03125 -0.9375,0.03125 -0.375,0 -0.75,-0.03125 -1.109375,-0.03125 -0.0625,0 -0.1875,0 -0.1875,0.203125 0,0.0625 0.046875,0.09375 0.109375,0.109375 0.09375,0.015625 0.40625,0.03125 0.40625,0.3125 0,0.140625 -0.109375,0.265625 -0.1875,0.359375 z m 0,0"
             id="id-63903614-39b6-4247-a00d-ec2ec7293521" />
        </g>
      </g>
      <g
         fill="#000000"
         fill-opacity="1"
         id="id-75f46bd5-ca40-47e4-a8da-0b3be5d13821"
         transform="translate(-261.127,-139.403)">
        <g
           transform="translate(342.873,178.247)"
           id="g8370">
          <path
             d="m 7.171875,-6.5625 c 0.015625,-0.046875 0.03125,-0.09375 0.03125,-0.15625 0,-0.09375 -0.046875,-0.09375 -0.25,-0.09375 H 2.75 c -0.234375,0 -0.25,0.015625 -0.3125,0.203125 L 1.890625,-4.8125 c -0.015625,0.046875 -0.03125,0.125 -0.03125,0.140625 0,0 0,0.109375 0.125,0.109375 0.09375,0 0.109375,-0.078125 0.125,-0.109375 C 2.5,-5.84375 3.015625,-6.5 4.5625,-6.5 h 1.625 L 0.625,-0.265625 c 0,0 -0.046875,0.140625 -0.046875,0.171875 C 0.578125,0 0.640625,0 0.828125,0 H 5.15625 c 0.25,0 0.25,-0.015625 0.3125,-0.203125 L 6.1875,-2.40625 c 0,-0.03125 0.03125,-0.109375 0.03125,-0.140625 0,-0.0625 -0.03125,-0.109375 -0.125,-0.109375 -0.09375,0 -0.109375,0.03125 -0.171875,0.25 C 5.484375,-1.0625 5,-0.34375 3.3125,-0.34375 H 1.609375 Z m 0,0"
             id="id-84c88deb-15c9-40ed-b985-fd00b3eb34f8" />
        </g>
      </g>
      <path
         fill="none"
         stroke-width="0.39848"
         stroke-linecap="butt"
         stroke-linejoin="miter"
         stroke="#000000"
         stroke-opacity="1"
         stroke-miterlimit="10"
         d="M 13.260102,36.355317 H 76.861664"
         id="id-c8f158a1-1ba9-415f-879c-d19567d7602b" />
      <path
         fill="none"
         stroke-width="0.39848"
         stroke-linecap="round"
         stroke-linejoin="round"
         stroke="#000000"
         stroke-opacity="1"
         stroke-miterlimit="10"
         d="m 74.986664,33.964692 c 0.378907,1.433593 1.222657,2.109375 2.074219,2.390624 -0.851562,0.277344 -1.695312,0.957032 -2.074219,2.390626"
         id="id-c9f843d2-3d3a-44fe-92fa-602b71ee882a" />
      <g
         fill="#000000"
         fill-opacity="1"
         id="id-cf63076b-92fb-4b80-8287-8f35ab9df91e"
         transform="translate(-261.127,-139.403)">
        <g
           transform="translate(301.983,182.944)"
           id="g7964">
          <path
             d="m 3.703125,-2.578125 c 0.03125,-0.09375 0.03125,-0.125 0.03125,-0.140625 0,-0.15625 -0.125,-0.21875 -0.234375,-0.21875 -0.15625,0 -0.296875,0.125 -0.328125,0.265625 -0.109375,-0.1875 -0.34375,-0.40625 -0.71875,-0.40625 -0.859375,0 -1.78125,0.9375 -1.78125,1.9375 0,0.71875 0.484375,1.140625 1.0625,1.140625 0.328125,0 0.625,-0.15625 0.875,-0.375 L 2.453125,0.25 C 2.375,0.546875 2.328125,0.734375 2.0625,0.96875 c -0.3125,0.25 -0.609375,0.25 -0.78125,0.25 -0.3125,0 -0.40625,-0.015625 -0.53125,-0.046875 0.171875,-0.078125 0.21875,-0.25 0.21875,-0.34375 0,-0.171875 -0.125,-0.25 -0.265625,-0.25 C 0.5,0.578125 0.296875,0.734375 0.296875,1 c 0,0.421875 0.609375,0.421875 1,0.421875 1.09375,0 1.546875,-0.5625 1.65625,-0.953125 z M 2.75,-0.921875 c -0.03125,0.09375 -0.03125,0.109375 -0.15625,0.25 C 2.359375,-0.375 2.015625,-0.1875 1.75,-0.1875 c -0.34375,0 -0.515625,-0.3125 -0.515625,-0.671875 0,-0.296875 0.1875,-1.078125 0.375,-1.390625 0.28125,-0.484375 0.609375,-0.625 0.84375,-0.625 0.5,0 0.625,0.515625 0.625,0.59375 0,0.015625 0,0.015625 -0.015625,0.09375 z m 0,0"
             id="id-649d2de2-c4ce-47d2-9f4e-598fbc48b8cb" />
        </g>
      </g>
      <g
         fill="#000000"
         fill-opacity="1"
         id="id-d31f6af2-3ec7-4005-9689-c3a020990457"
         transform="translate(-261.127,-139.403)">
        <g
           transform="translate(306.121,182.944)"
           id="g9325">
          <path
             d="M 2.84375,-2.75 H 3.515625 C 3.65625,-2.75 3.75,-2.75 3.75,-2.90625 3.75,-3 3.65625,-3 3.53125,-3 H 2.890625 c 0.15625,-0.890625 0.203125,-1.203125 0.265625,-1.40625 0.03125,-0.15625 0.1875,-0.296875 0.359375,-0.296875 0,0 0.1875,0 0.328125,0.078125 -0.296875,0.09375 -0.3125,0.34375 -0.3125,0.375 0,0.15625 0.125,0.265625 0.28125,0.265625 0.1875,0 0.390625,-0.15625 0.390625,-0.421875 0,-0.328125 -0.328125,-0.5 -0.6875,-0.5 -0.3125,0 -0.65625,0.171875 -0.84375,0.515625 C 2.53125,-4.125 2.484375,-3.8125 2.328125,-3 H 1.78125 c -0.140625,0 -0.234375,0 -0.234375,0.15625 0,0.09375 0.09375,0.09375 0.21875,0.09375 H 2.28125 c 0,0.046875 -0.4375,2.546875 -0.609375,3.296875 -0.03125,0.15625 -0.15625,0.671875 -0.484375,0.671875 -0.015625,0 -0.171875,0 -0.3125,-0.078125 0.28125,-0.09375 0.3125,-0.34375 0.3125,-0.375 C 1.1875,0.609375 1.0625,0.5 0.90625,0.5 c -0.1875,0 -0.390625,0.15625 -0.390625,0.421875 0,0.3125 0.328125,0.5 0.671875,0.5 0.4375,0 0.75,-0.453125 0.828125,-0.609375 0.25,-0.46875 0.421875,-1.328125 0.4375,-1.40625 z m 0,0"
             id="id-345839d8-fba9-4e14-8b24-7652fb421604" />
        </g>
      </g>
      <path
         fill="none"
         stroke-width="0.39848"
         stroke-linecap="butt"
         stroke-linejoin="miter"
         stroke="#000000"
         stroke-opacity="1"
         stroke-miterlimit="10"
         d="M 13.260102,29.32016 36.83432,10.902192"
         id="id-be0abc2a-060e-4235-8c9a-75b85cc8d886" />
      <path
         fill="none"
         stroke-width="0.398472"
         stroke-linecap="round"
         stroke-linejoin="round"
         stroke="#000000"
         stroke-opacity="1"
         stroke-miterlimit="10"
         d="m 33.885101,10.171722 c 1.183594,0.898438 2.265625,0.910157 3.105469,0.609375 -0.496094,0.742188 -0.746094,1.796876 -0.160156,3.160156"
         id="id-967af5d0-248a-4c5c-b286-26f1b24abe7d" />
      <g
         fill="#000000"
         fill-opacity="1"
         id="id-793cb3f9-64bb-41df-ac5c-91e79c7a6c7d"
         transform="translate(-261.127,-139.403)">
        <g
           transform="translate(279.32,155.692)"
           id="g9873">
          <path
             d="M 2.84375,-2.75 H 3.515625 C 3.65625,-2.75 3.75,-2.75 3.75,-2.90625 3.75,-3 3.65625,-3 3.53125,-3 H 2.890625 c 0.15625,-0.890625 0.203125,-1.203125 0.265625,-1.40625 0.03125,-0.15625 0.1875,-0.296875 0.359375,-0.296875 0,0 0.1875,0 0.328125,0.078125 -0.296875,0.09375 -0.3125,0.34375 -0.3125,0.375 0,0.15625 0.125,0.265625 0.28125,0.265625 0.1875,0 0.390625,-0.15625 0.390625,-0.421875 0,-0.328125 -0.328125,-0.5 -0.6875,-0.5 -0.3125,0 -0.65625,0.171875 -0.84375,0.515625 C 2.53125,-4.125 2.484375,-3.8125 2.328125,-3 H 1.78125 c -0.140625,0 -0.234375,0 -0.234375,0.15625 0,0.09375 0.09375,0.09375 0.21875,0.09375 H 2.28125 c 0,0.046875 -0.4375,2.546875 -0.609375,3.296875 -0.03125,0.15625 -0.15625,0.671875 -0.484375,0.671875 -0.015625,0 -0.171875,0 -0.3125,-0.078125 0.28125,-0.09375 0.3125,-0.34375 0.3125,-0.375 C 1.1875,0.609375 1.0625,0.5 0.90625,0.5 c -0.1875,0 -0.390625,0.15625 -0.390625,0.421875 0,0.3125 0.328125,0.5 0.671875,0.5 0.4375,0 0.75,-0.453125 0.828125,-0.609375 0.25,-0.46875 0.421875,-1.328125 0.4375,-1.40625 z m 0,0"
             id="id-f01b207f-55a7-4024-b6ea-7c2b762d2ab4" />
        </g>
      </g>
      <path
         fill="none"
         stroke-width="0.39848"
         stroke-linecap="butt"
         stroke-linejoin="miter"
         stroke="#000000"
         stroke-opacity="1"
         stroke-miterlimit="10"
         d="M 53.217133,10.656098 76.947602,29.542817"
         id="id-6dcc06cf-14c5-419b-9e7d-434bb27e77c1" />
      <path
         fill="none"
         stroke-width="0.398453"
         stroke-linecap="round"
         stroke-linejoin="round"
         stroke="#000000"
         stroke-opacity="1"
         stroke-miterlimit="10"
         d="m 76.971039,26.50766 c -0.597657,1.359375 -0.359375,2.414063 0.132812,3.160156 -0.839844,-0.308594 -1.921874,-0.304688 -3.113281,0.582031"
         id="id-c96fc1f6-49bc-4b6b-ba14-fce5758d2339" />
      <g
         fill="#000000"
         fill-opacity="1"
         id="id-fd11b81d-ccb0-47e3-8fbd-9059a3b1ee02"
         transform="translate(-261.127,-139.403)">
        <g
           transform="translate(328.708,155.928)"
           id="g7662">
          <path
             d="m 3.703125,-2.578125 c 0.03125,-0.09375 0.03125,-0.125 0.03125,-0.140625 0,-0.15625 -0.125,-0.21875 -0.234375,-0.21875 -0.15625,0 -0.296875,0.125 -0.328125,0.265625 -0.109375,-0.1875 -0.34375,-0.40625 -0.71875,-0.40625 -0.859375,0 -1.78125,0.9375 -1.78125,1.9375 0,0.71875 0.484375,1.140625 1.0625,1.140625 0.328125,0 0.625,-0.15625 0.875,-0.375 L 2.453125,0.25 C 2.375,0.546875 2.328125,0.734375 2.0625,0.96875 c -0.3125,0.25 -0.609375,0.25 -0.78125,0.25 -0.3125,0 -0.40625,-0.015625 -0.53125,-0.046875 0.171875,-0.078125 0.21875,-0.25 0.21875,-0.34375 0,-0.171875 -0.125,-0.25 -0.265625,-0.25 C 0.5,0.578125 0.296875,0.734375 0.296875,1 c 0,0.421875 0.609375,0.421875 1,0.421875 1.09375,0 1.546875,-0.5625 1.65625,-0.953125 z M 2.75,-0.921875 c -0.03125,0.09375 -0.03125,0.109375 -0.15625,0.25 C 2.359375,-0.375 2.015625,-0.1875 1.75,-0.1875 c -0.34375,0 -0.515625,-0.3125 -0.515625,-0.671875 0,-0.296875 0.1875,-1.078125 0.375,-1.390625 0.28125,-0.484375 0.609375,-0.625 0.84375,-0.625 0.5,0 0.625,0.515625 0.625,0.59375 0,0.015625 0,0.015625 -0.015625,0.09375 z m 0,0"
             id="id-6c7feabc-5ccb-48b9-bae3-cfa21e362b28" />
        </g>
      </g>
    </g>
  </g>
</svg>
