<?xml version="1.0" encoding="UTF-8" standalone="no"?>
<!-- Created with Inkscape (http://www.inkscape.org/) -->

<svg
   width="150.19603mm"
   height="29.261877mm"
   viewBox="0 0 150.19603 29.261878"
   version="1.1"
   id="svg1"
   inkscape:version="1.3 (0e150ed6c4, 2023-07-21)"
   sodipodi:docname="factor.svg"
   xmlns:inkscape="http://www.inkscape.org/namespaces/inkscape"
   xmlns:sodipodi="http://sodipodi.sourceforge.net/DTD/sodipodi-0.dtd"
   xmlns="http://www.w3.org/2000/svg"
   xmlns:svg="http://www.w3.org/2000/svg"
   xmlns:ns7="http://www.iki.fi/pav/software/textext/">
  <sodipodi:namedview
     id="namedview1"
     pagecolor="#282a37"
     bordercolor="#000000"
     borderopacity="0.25"
     inkscape:showpageshadow="2"
     inkscape:pageopacity="0.0"
     inkscape:pagecheckerboard="0"
     inkscape:deskcolor="#d1d1d1"
     inkscape:document-units="mm"
     inkscape:zoom="2.4001203"
     inkscape:cx="312.69266"
     inkscape:cy="52.289046"
     inkscape:window-width="1900"
     inkscape:window-height="1035"
     inkscape:window-x="9"
     inkscape:window-y="9"
     inkscape:window-maximized="1"
     inkscape:current-layer="svg1" />
  <defs
     id="defs1">
    <filter
       style="color-interpolation-filters:sRGB"
       inkscape:label="Colorize"
       id="filter2"
       x="0"
       y="0"
       width="1"
       height="1">
      <feComposite
         in2="SourceGraphic"
         operator="arithmetic"
         k1="0"
         k2="0"
         result="composite1"
         id="feComposite1"
         k3="0"
         k4="0" />
      <feColorMatrix
         in="composite1"
         values="1"
         type="saturate"
         result="colormatrix1"
         id="feColorMatrix1" />
      <feFlood
         flood-opacity="1"
         flood-color="rgb(248,248,242)"
         result="flood1"
         id="feFlood1" />
      <feBlend
         in="flood1"
         in2="colormatrix1"
         mode="normal"
         result="blend1"
         id="feBlend1" />
      <feBlend
         in2="blend1"
         mode="normal"
         result="blend2"
         id="feBlend2" />
      <feColorMatrix
         in="blend2"
         values="1"
         type="saturate"
         result="colormatrix2"
         id="feColorMatrix2" />
      <feComposite
         in="colormatrix2"
         in2="SourceGraphic"
         operator="in"
         result="composite2"
         id="feComposite2" />
    </filter>
    <filter
       style="color-interpolation-filters:sRGB"
       inkscape:label="Colorize"
       id="filter4"
       x="0"
       y="0"
       width="1.002218"
       height="1">
      <feComposite
         in2="SourceGraphic"
         operator="arithmetic"
         k1="0"
         k2="0"
         result="composite1"
         id="feComposite3"
         k3="0"
         k4="0" />
      <feColorMatrix
         in="composite1"
         values="1"
         type="saturate"
         result="colormatrix1"
         id="feColorMatrix3" />
      <feFlood
         flood-opacity="1"
         flood-color="rgb(248,248,242)"
         result="flood1"
         id="feFlood3" />
      <feBlend
         in="flood1"
         in2="colormatrix1"
         mode="normal"
         result="blend1"
         id="feBlend3" />
      <feBlend
         in2="blend1"
         mode="normal"
         result="blend2"
         id="feBlend4" />
      <feColorMatrix
         in="blend2"
         values="1"
         type="saturate"
         result="colormatrix2"
         id="feColorMatrix4" />
      <feComposite
         in="colormatrix2"
         in2="SourceGraphic"
         operator="in"
         result="fbSourceGraphic"
         id="feComposite4" />
      <feColorMatrix
         result="fbSourceGraphicAlpha"
         in="fbSourceGraphic"
         values="0 0 0 -1 0 0 0 0 -1 0 0 0 0 -1 0 0 0 0 1 0"
         id="feColorMatrix5" />
      <feComposite
         id="feComposite5"
         in2="fbSourceGraphic"
         operator="arithmetic"
         k1="0"
         k2="0"
         result="composite1"
         in="fbSourceGraphic"
         k3="0"
         k4="0" />
      <feColorMatrix
         id="feColorMatrix6"
         in="composite1"
         values="1"
         type="saturate"
         result="colormatrix1" />
      <feFlood
         id="feFlood6"
         flood-opacity="1"
         flood-color="rgb(248,248,242)"
         result="flood1" />
      <feBlend
         id="feBlend6"
         in="flood1"
         in2="colormatrix1"
         mode="normal"
         result="blend1" />
      <feBlend
         id="feBlend7"
         in2="blend1"
         mode="normal"
         result="blend2" />
      <feColorMatrix
         id="feColorMatrix7"
         in="blend2"
         values="1"
         type="saturate"
         result="colormatrix2" />
      <feComposite
         id="feComposite7"
         in="colormatrix2"
         in2="fbSourceGraphic"
         operator="in"
         result="composite2" />
    </filter>
    <filter
       style="color-interpolation-filters:sRGB"
       inkscape:label="Colorize"
       id="filter9"
       x="0"
       y="0"
       width="1.0016943"
       height="1">
      <feComposite
         in2="SourceGraphic"
         operator="arithmetic"
         k1="0"
         k2="0"
         result="composite1"
         id="feComposite8"
         k3="0"
         k4="0" />
      <feColorMatrix
         in="composite1"
         values="1"
         type="saturate"
         result="colormatrix1"
         id="feColorMatrix8" />
      <feFlood
         flood-opacity="1"
         flood-color="rgb(248,248,242)"
         result="flood1"
         id="feFlood8" />
      <feBlend
         in="flood1"
         in2="colormatrix1"
         mode="normal"
         result="blend1"
         id="feBlend8" />
      <feBlend
         in2="blend1"
         mode="normal"
         result="blend2"
         id="feBlend9" />
      <feColorMatrix
         in="blend2"
         values="1"
         type="saturate"
         result="colormatrix2"
         id="feColorMatrix9" />
      <feComposite
         in="colormatrix2"
         in2="SourceGraphic"
         operator="in"
         result="fbSourceGraphic"
         id="feComposite9" />
      <feColorMatrix
         result="fbSourceGraphicAlpha"
         in="fbSourceGraphic"
         values="0 0 0 -1 0 0 0 0 -1 0 0 0 0 -1 0 0 0 0 1 0"
         id="feColorMatrix10" />
      <feComposite
         id="feComposite10"
         in2="fbSourceGraphic"
         operator="arithmetic"
         k1="0"
         k2="0"
         result="composite1"
         in="fbSourceGraphic"
         k3="0"
         k4="0" />
      <feColorMatrix
         id="feColorMatrix11"
         in="composite1"
         values="1"
         type="saturate"
         result="colormatrix1" />
      <feFlood
         id="feFlood11"
         flood-opacity="1"
         flood-color="rgb(248,248,242)"
         result="flood1" />
      <feBlend
         id="feBlend11"
         in="flood1"
         in2="colormatrix1"
         mode="normal"
         result="blend1" />
      <feBlend
         id="feBlend12"
         in2="blend1"
         mode="normal"
         result="blend2" />
      <feColorMatrix
         id="feColorMatrix12"
         in="blend2"
         values="1"
         type="saturate"
         result="colormatrix2" />
      <feComposite
         id="feComposite12"
         in="colormatrix2"
         in2="fbSourceGraphic"
         operator="in"
         result="composite2" />
    </filter>
    <filter
       style="color-interpolation-filters:sRGB"
       inkscape:label="Colorize"
       id="filter14"
       x="0"
       y="0"
       width="1"
       height="1.0025606">
      <feComposite
         in2="SourceGraphic"
         operator="arithmetic"
         k1="0"
         k2="0"
         result="composite1"
         id="feComposite13"
         k3="0"
         k4="0" />
      <feColorMatrix
         in="composite1"
         values="1"
         type="saturate"
         result="colormatrix1"
         id="feColorMatrix13" />
      <feFlood
         flood-opacity="1"
         flood-color="rgb(248,248,242)"
         result="flood1"
         id="feFlood13" />
      <feBlend
         in="flood1"
         in2="colormatrix1"
         mode="normal"
         result="blend1"
         id="feBlend13" />
      <feBlend
         in2="blend1"
         mode="normal"
         result="blend2"
         id="feBlend14" />
      <feColorMatrix
         in="blend2"
         values="1"
         type="saturate"
         result="colormatrix2"
         id="feColorMatrix14" />
      <feComposite
         in="colormatrix2"
         in2="SourceGraphic"
         operator="in"
         result="composite2"
         id="feComposite14" />
    </filter>
    <filter
       style="color-interpolation-filters:sRGB"
       inkscape:label="Colorize"
       id="filter16"
       x="0"
       y="0"
       width="1"
       height="1.0025606">
      <feComposite
         in2="SourceGraphic"
         operator="arithmetic"
         k1="0"
         k2="0"
         result="composite1"
         id="feComposite15"
         k3="0"
         k4="0" />
      <feColorMatrix
         in="composite1"
         values="1"
         type="saturate"
         result="colormatrix1"
         id="feColorMatrix15" />
      <feFlood
         flood-opacity="1"
         flood-color="rgb(248,248,242)"
         result="flood1"
         id="feFlood15" />
      <feBlend
         in="flood1"
         in2="colormatrix1"
         mode="normal"
         result="blend1"
         id="feBlend15" />
      <feBlend
         in2="blend1"
         mode="normal"
         result="blend2"
         id="feBlend16" />
      <feColorMatrix
         in="blend2"
         values="1"
         type="saturate"
         result="colormatrix2"
         id="feColorMatrix16" />
      <feComposite
         in="colormatrix2"
         in2="SourceGraphic"
         operator="in"
         result="composite2"
         id="feComposite16" />
    </filter>
    <filter
       style="color-interpolation-filters:sRGB"
       inkscape:label="Colorize"
       id="filter18"
       x="0"
       y="0"
       width="1"
       height="1">
      <feComposite
         in2="SourceGraphic"
         operator="arithmetic"
         k1="0"
         k2="0"
         result="composite1"
         id="feComposite17"
         k3="0"
         k4="0" />
      <feColorMatrix
         in="composite1"
         values="1"
         type="saturate"
         result="colormatrix1"
         id="feColorMatrix17" />
      <feFlood
         flood-opacity="1"
         flood-color="rgb(248,248,242)"
         result="flood1"
         id="feFlood17" />
      <feBlend
         in="flood1"
         in2="colormatrix1"
         mode="normal"
         result="blend1"
         id="feBlend17" />
      <feBlend
         in2="blend1"
         mode="normal"
         result="blend2"
         id="feBlend18" />
      <feColorMatrix
         in="blend2"
         values="1"
         type="saturate"
         result="colormatrix2"
         id="feColorMatrix18" />
      <feComposite
         in="colormatrix2"
         in2="SourceGraphic"
         operator="in"
         result="fbSourceGraphic"
         id="feComposite18" />
      <feColorMatrix
         result="fbSourceGraphicAlpha"
         in="fbSourceGraphic"
         values="0 0 0 -1 0 0 0 0 -1 0 0 0 0 -1 0 0 0 0 1 0"
         id="feColorMatrix19" />
      <feComposite
         id="feComposite19"
         in2="fbSourceGraphic"
         operator="arithmetic"
         k1="0"
         k2="0"
         result="composite1"
         in="fbSourceGraphic"
         k3="0"
         k4="0" />
      <feColorMatrix
         id="feColorMatrix20"
         in="composite1"
         values="1"
         type="saturate"
         result="colormatrix1" />
      <feFlood
         id="feFlood20"
         flood-opacity="1"
         flood-color="rgb(248,248,242)"
         result="flood1" />
      <feBlend
         id="feBlend20"
         in="flood1"
         in2="colormatrix1"
         mode="normal"
         result="blend1" />
      <feBlend
         id="feBlend21"
         in2="blend1"
         mode="normal"
         result="blend2" />
      <feColorMatrix
         id="feColorMatrix21"
         in="blend2"
         values="1"
         type="saturate"
         result="colormatrix2" />
      <feComposite
         id="feComposite21"
         in="colormatrix2"
         in2="fbSourceGraphic"
         operator="in"
         result="composite2" />
    </filter>
    <filter
       style="color-interpolation-filters:sRGB"
       inkscape:label="Colorize"
       id="filter23"
       x="0"
       y="0"
       width="1"
       height="1">
      <feComposite
         in2="SourceGraphic"
         operator="arithmetic"
         k1="0"
         k2="0"
         result="composite1"
         id="feComposite22"
         k3="0"
         k4="0" />
      <feColorMatrix
         in="composite1"
         values="1"
         type="saturate"
         result="colormatrix1"
         id="feColorMatrix22" />
      <feFlood
         flood-opacity="1"
         flood-color="rgb(248,248,242)"
         result="flood1"
         id="feFlood22" />
      <feBlend
         in="flood1"
         in2="colormatrix1"
         mode="normal"
         result="blend1"
         id="feBlend22" />
      <feBlend
         in2="blend1"
         mode="normal"
         result="blend2"
         id="feBlend23" />
      <feColorMatrix
         in="blend2"
         values="1"
         type="saturate"
         result="colormatrix2"
         id="feColorMatrix23" />
      <feComposite
         in="colormatrix2"
         in2="SourceGraphic"
         operator="in"
         result="composite2"
         id="feComposite23" />
    </filter>
  </defs>
  <g
     transform="matrix(0.705556,0,0,0.705556,2.645835e-4,3.52778e-4)"
     ns7:version="1.9.0"
     ns7:texconverter="pdflatex"
     ns7:pdfconverter="inkscape"
     ns7:text="\\[\\begin{tikzcd}\n\tX &amp;&amp; Y &amp; X &amp;&amp; Y \\\\\n\t&amp; {\\hat{X}} &amp;&amp;&amp; {\\tilde{Y}}\n\t\\arrow[&quot;\\sim&quot;', tail, from=1-1, to=2-2]\n\t\\arrow[from=1-1, to=1-3]\n\t\\arrow[two heads, from=1-4, to=2-5]\n\t\\arrow[two heads, from=2-2, to=1-3]\n\t\\arrow[from=1-4, to=1-6]\n\t\\arrow[&quot;\\sim&quot;', tail, from=2-5, to=1-6]\n\\end{tikzcd}\\]"
     ns7:preamble="/usr/share/inkscape/extensions/textext/default_packages.tex"
     ns7:scale="2.0"
     ns7:alignment="middle center"
     ns7:stroke-to-path="0"
     ns7:inkscapeversion="1.3"
     id="g2743"
     ns7:jacobian_sqrt="0.705556"
     style="filter:url(#filter23)">
    <defs
       id="id-da6db1ab-ea70-4bb0-80cd-20f5a4e58d6b">
      <g
         id="id-5e674380-c9f9-45be-8cc9-688402bd6789">
        <g
           id="id-74a8be8c-1375-4d63-a4a4-bbf0a79f29b5" />
        <g
           id="id-27d5bfcb-ead3-4232-acd6-e88b500b0184">
          <path
             d="M 4.828125,-4.09375 4,-6.078125 c -0.03125,-0.078125 -0.046875,-0.125 -0.046875,-0.125 0,-0.0625 0.15625,-0.25 0.578125,-0.296875 0.109375,-0.015625 0.203125,-0.015625 0.203125,-0.1875 0,-0.125 -0.125,-0.125 -0.15625,-0.125 -0.40625,0 -0.828125,0.03125 -1.25,0.03125 -0.25,0 -0.859375,-0.03125 -1.109375,-0.03125 -0.0625,0 -0.1875,0 -0.1875,0.203125 C 2.03125,-6.5 2.140625,-6.5 2.265625,-6.5 c 0.59375,0 0.65625,0.09375 0.75,0.3125 l 1.171875,2.78125 -2.109375,2.265625 -0.125,0.109375 C 1.46875,-0.5 1,-0.34375 0.484375,-0.3125 c -0.125,0.015625 -0.21875,0.015625 -0.21875,0.203125 0,0.015625 0,0.109375 0.140625,0.109375 0.296875,0 0.625,-0.03125 0.921875,-0.03125 C 1.703125,-0.03125 2.09375,0 2.453125,0 2.515625,0 2.625,0 2.625,-0.203125 2.625,-0.296875 2.53125,-0.3125 2.515625,-0.3125 c -0.09375,0 -0.40625,-0.03125 -0.40625,-0.3125 0,-0.15625 0.15625,-0.3125 0.265625,-0.4375 L 3.40625,-2.140625 4.296875,-3.125 l 1,2.390625 c 0.046875,0.109375 0.0625,0.109375 0.0625,0.140625 0,0.078125 -0.203125,0.25 -0.578125,0.28125 C 4.671875,-0.296875 4.578125,-0.296875 4.578125,-0.125 4.578125,0 4.6875,0 4.71875,0 5,0 5.703125,-0.03125 5.984375,-0.03125 6.234375,-0.03125 6.84375,0 7.09375,0 c 0.0625,0 0.1875,0 0.1875,-0.1875 0,-0.125 -0.109375,-0.125 -0.1875,-0.125 -0.65625,0 -0.6875,-0.03125 -0.859375,-0.4375 C 5.859375,-1.671875 5.1875,-3.234375 4.953125,-3.828125 5.625,-4.53125 6.671875,-5.71875 7,-5.984375 7.28125,-6.234375 7.671875,-6.46875 8.265625,-6.5 c 0.125,-0.015625 0.21875,-0.015625 0.21875,-0.203125 0,0 0,-0.109375 -0.125,-0.109375 -0.296875,0 -0.640625,0.03125 -0.9375,0.03125 -0.375,0 -0.75,-0.03125 -1.109375,-0.03125 -0.0625,0 -0.1875,0 -0.1875,0.203125 0,0.0625 0.046875,0.09375 0.109375,0.109375 0.09375,0.015625 0.40625,0.03125 0.40625,0.3125 0,0.140625 -0.109375,0.265625 -0.1875,0.359375 z m 0,0"
             id="id-e4ffe19a-a589-4e8e-8cb5-cc81323275b1" />
        </g>
        <g
           id="id-54f5a1e7-85e9-49e7-be53-6da8e29950d5">
          <path
             d="M 5.953125,-5.671875 6.09375,-5.8125 C 6.390625,-6.109375 6.71875,-6.453125 7.390625,-6.5 7.5,-6.515625 7.59375,-6.515625 7.59375,-6.6875 c 0,-0.078125 -0.046875,-0.125 -0.125,-0.125 -0.265625,0 -0.546875,0.03125 -0.8125,0.03125 -0.34375,0 -0.6875,-0.03125 -1,-0.03125 -0.0625,0 -0.1875,0 -0.1875,0.1875 0,0.109375 0.09375,0.125 0.140625,0.125 0.078125,0 0.359375,0.015625 0.359375,0.234375 0,0.171875 -0.234375,0.421875 -0.265625,0.46875 L 3.390625,-3.125 2.296875,-6.09375 C 2.234375,-6.234375 2.234375,-6.25 2.234375,-6.265625 2.234375,-6.5 2.71875,-6.5 2.828125,-6.5 c 0.125,0 0.234375,0 0.234375,-0.203125 0,-0.109375 -0.125,-0.109375 -0.15625,-0.109375 -0.28125,0 -0.96875,0.03125 -1.25,0.03125 -0.25,0 -0.875,-0.03125 -1.125,-0.03125 -0.046875,0 -0.1875,0 -0.1875,0.203125 C 0.34375,-6.5 0.453125,-6.5 0.578125,-6.5 c 0.59375,0 0.640625,0.09375 0.734375,0.34375 L 2.53125,-2.875 c 0.015625,0.03125 0.046875,0.140625 0.046875,0.15625 0,0.03125 -0.40625,1.640625 -0.453125,1.828125 C 2,-0.34375 1.984375,-0.3125 1.1875,-0.3125 c -0.1875,0 -0.265625,0 -0.265625,0.203125 C 0.921875,0 1.03125,0 1.0625,0 c 0.265625,0 0.96875,-0.03125 1.25,-0.03125 0.28125,0 1,0.03125 1.28125,0.03125 0.0625,0 0.1875,0 0.1875,-0.203125 C 3.78125,-0.3125 3.6875,-0.3125 3.5,-0.3125 c -0.015625,0 -0.203125,0 -0.375,-0.015625 C 2.90625,-0.34375 2.84375,-0.375 2.84375,-0.484375 c 0,-0.078125 0.09375,-0.421875 0.140625,-0.625 l 0.359375,-1.40625 c 0.046875,-0.203125 0.0625,-0.21875 0.140625,-0.3125 z m 0,0"
             id="id-647e40e2-5e3d-47ac-a3c5-017d4e2dfae7" />
        </g>
        <g
           id="id-16220055-c2a2-4cc6-adc8-100554f52cd4" />
        <g
           id="id-a4846d53-5d14-439b-a0d1-ccd7c0a49887">
          <path
             d="M 2.5,-6.921875 1.15625,-5.5625 1.328125,-5.390625 2.5,-6.40625 3.640625,-5.390625 3.8125,-5.5625 Z m 0,0"
             id="id-303fd5d9-8d61-4c22-b68c-85f0ca14fdbc" />
        </g>
        <g
           id="id-d48aeaff-f04f-4cbf-993b-cce213172d17">
          <path
             d="M 4.140625,-6.515625 3.984375,-6.65625 c 0,0 -0.375,0.46875 -0.8125,0.46875 -0.234375,0 -0.484375,-0.140625 -0.65625,-0.25 C 2.25,-6.59375 2.078125,-6.65625 1.90625,-6.65625 c -0.375,0 -0.578125,0.21875 -1.078125,0.78125 l 0.15625,0.140625 c 0,0 0.375,-0.46875 0.8125,-0.46875 0.234375,0 0.484375,0.140625 0.65625,0.234375 0.265625,0.171875 0.453125,0.234375 0.625,0.234375 0.375,0 0.5625,-0.21875 1.0625,-0.78125 z m 0,0"
             id="id-92f69e14-170c-43c6-a8e6-4b568bddff87" />
        </g>
        <g
           id="id-9dec170e-75ff-40d7-8158-b727bac427a5" />
        <g
           id="id-c2183bd4-fe10-462b-9856-bf41fb4b738c">
          <path
             d="m 5.671875,-2.390625 c 0,-0.265625 -0.09375,-0.28125 -0.109375,-0.28125 -0.109375,0 -0.125,0.203125 -0.125,0.28125 -0.015625,0.515625 -0.40625,1.09375 -1.046875,1.09375 -0.5,0 -0.84375,-0.3125 -1.234375,-0.671875 -0.375,-0.328125 -0.78125,-0.703125 -1.328125,-0.703125 -0.796875,0 -1.296875,0.8125 -1.296875,1.578125 0,0.265625 0.109375,0.28125 0.125,0.28125 0.109375,0 0.109375,-0.1875 0.125,-0.28125 0.015625,-0.515625 0.390625,-1.09375 1.046875,-1.09375 0.5,0 0.84375,0.3125 1.234375,0.671875 0.359375,0.328125 0.78125,0.703125 1.328125,0.703125 0.796875,0 1.28125,-0.8125 1.28125,-1.578125 z m 0,0"
             id="id-02aa16b1-6e67-4b9f-8620-2b9e337ab2f1" />
        </g>
      </g>
    </defs>
    <g
       fill="#000000"
       fill-opacity="1"
       id="id-7d8f0264-2014-48ca-8c09-0d773c9579e0"
       transform="translate(-199.117,-139.403)">
      <g
         transform="translate(198.851,146.215)"
         id="g9475">
        <path
           d="M 4.828125,-4.09375 4,-6.078125 c -0.03125,-0.078125 -0.046875,-0.125 -0.046875,-0.125 0,-0.0625 0.15625,-0.25 0.578125,-0.296875 0.109375,-0.015625 0.203125,-0.015625 0.203125,-0.1875 0,-0.125 -0.125,-0.125 -0.15625,-0.125 -0.40625,0 -0.828125,0.03125 -1.25,0.03125 -0.25,0 -0.859375,-0.03125 -1.109375,-0.03125 -0.0625,0 -0.1875,0 -0.1875,0.203125 C 2.03125,-6.5 2.140625,-6.5 2.265625,-6.5 c 0.59375,0 0.65625,0.09375 0.75,0.3125 l 1.171875,2.78125 -2.109375,2.265625 -0.125,0.109375 C 1.46875,-0.5 1,-0.34375 0.484375,-0.3125 c -0.125,0.015625 -0.21875,0.015625 -0.21875,0.203125 0,0.015625 0,0.109375 0.140625,0.109375 0.296875,0 0.625,-0.03125 0.921875,-0.03125 C 1.703125,-0.03125 2.09375,0 2.453125,0 2.515625,0 2.625,0 2.625,-0.203125 2.625,-0.296875 2.53125,-0.3125 2.515625,-0.3125 c -0.09375,0 -0.40625,-0.03125 -0.40625,-0.3125 0,-0.15625 0.15625,-0.3125 0.265625,-0.4375 L 3.40625,-2.140625 4.296875,-3.125 l 1,2.390625 c 0.046875,0.109375 0.0625,0.109375 0.0625,0.140625 0,0.078125 -0.203125,0.25 -0.578125,0.28125 C 4.671875,-0.296875 4.578125,-0.296875 4.578125,-0.125 4.578125,0 4.6875,0 4.71875,0 5,0 5.703125,-0.03125 5.984375,-0.03125 6.234375,-0.03125 6.84375,0 7.09375,0 c 0.0625,0 0.1875,0 0.1875,-0.1875 0,-0.125 -0.109375,-0.125 -0.1875,-0.125 -0.65625,0 -0.6875,-0.03125 -0.859375,-0.4375 C 5.859375,-1.671875 5.1875,-3.234375 4.953125,-3.828125 5.625,-4.53125 6.671875,-5.71875 7,-5.984375 7.28125,-6.234375 7.671875,-6.46875 8.265625,-6.5 c 0.125,-0.015625 0.21875,-0.015625 0.21875,-0.203125 0,0 0,-0.109375 -0.125,-0.109375 -0.296875,0 -0.640625,0.03125 -0.9375,0.03125 -0.375,0 -0.75,-0.03125 -1.109375,-0.03125 -0.0625,0 -0.1875,0 -0.1875,0.203125 0,0.0625 0.046875,0.09375 0.109375,0.109375 0.09375,0.015625 0.40625,0.03125 0.40625,0.3125 0,0.140625 -0.109375,0.265625 -0.1875,0.359375 z m 0,0"
           id="id-a33c58ab-7784-45a9-9373-c6f86e524a72" />
      </g>
    </g>
    <g
       fill="#000000"
       fill-opacity="1"
       id="id-860b4031-031c-459c-833e-f01fdc8f5908"
       transform="translate(-199.117,-139.403)">
      <g
         transform="translate(281.9,146.215)"
         id="g5187">
        <path
           d="M 5.953125,-5.671875 6.09375,-5.8125 C 6.390625,-6.109375 6.71875,-6.453125 7.390625,-6.5 7.5,-6.515625 7.59375,-6.515625 7.59375,-6.6875 c 0,-0.078125 -0.046875,-0.125 -0.125,-0.125 -0.265625,0 -0.546875,0.03125 -0.8125,0.03125 -0.34375,0 -0.6875,-0.03125 -1,-0.03125 -0.0625,0 -0.1875,0 -0.1875,0.1875 0,0.109375 0.09375,0.125 0.140625,0.125 0.078125,0 0.359375,0.015625 0.359375,0.234375 0,0.171875 -0.234375,0.421875 -0.265625,0.46875 L 3.390625,-3.125 2.296875,-6.09375 C 2.234375,-6.234375 2.234375,-6.25 2.234375,-6.265625 2.234375,-6.5 2.71875,-6.5 2.828125,-6.5 c 0.125,0 0.234375,0 0.234375,-0.203125 0,-0.109375 -0.125,-0.109375 -0.15625,-0.109375 -0.28125,0 -0.96875,0.03125 -1.25,0.03125 -0.25,0 -0.875,-0.03125 -1.125,-0.03125 -0.046875,0 -0.1875,0 -0.1875,0.203125 C 0.34375,-6.5 0.453125,-6.5 0.578125,-6.5 c 0.59375,0 0.640625,0.09375 0.734375,0.34375 L 2.53125,-2.875 c 0.015625,0.03125 0.046875,0.140625 0.046875,0.15625 0,0.03125 -0.40625,1.640625 -0.453125,1.828125 C 2,-0.34375 1.984375,-0.3125 1.1875,-0.3125 c -0.1875,0 -0.265625,0 -0.265625,0.203125 C 0.921875,0 1.03125,0 1.0625,0 c 0.265625,0 0.96875,-0.03125 1.25,-0.03125 0.28125,0 1,0.03125 1.28125,0.03125 0.0625,0 0.1875,0 0.1875,-0.203125 C 3.78125,-0.3125 3.6875,-0.3125 3.5,-0.3125 c -0.015625,0 -0.203125,0 -0.375,-0.015625 C 2.90625,-0.34375 2.84375,-0.375 2.84375,-0.484375 c 0,-0.078125 0.09375,-0.421875 0.140625,-0.625 l 0.359375,-1.40625 c 0.046875,-0.203125 0.0625,-0.21875 0.140625,-0.3125 z m 0,0"
           id="id-27e1e20a-4a0e-4079-b068-5fcd0a54f813" />
      </g>
    </g>
    <g
       fill="#000000"
       fill-opacity="1"
       id="id-44562853-4551-4918-9d5b-127ae1b7e1cc"
       transform="translate(-199.117,-139.403)">
      <g
         transform="translate(322.387,146.215)"
         id="g8759">
        <path
           d="M 4.828125,-4.09375 4,-6.078125 c -0.03125,-0.078125 -0.046875,-0.125 -0.046875,-0.125 0,-0.0625 0.15625,-0.25 0.578125,-0.296875 0.109375,-0.015625 0.203125,-0.015625 0.203125,-0.1875 0,-0.125 -0.125,-0.125 -0.15625,-0.125 -0.40625,0 -0.828125,0.03125 -1.25,0.03125 -0.25,0 -0.859375,-0.03125 -1.109375,-0.03125 -0.0625,0 -0.1875,0 -0.1875,0.203125 C 2.03125,-6.5 2.140625,-6.5 2.265625,-6.5 c 0.59375,0 0.65625,0.09375 0.75,0.3125 l 1.171875,2.78125 -2.109375,2.265625 -0.125,0.109375 C 1.46875,-0.5 1,-0.34375 0.484375,-0.3125 c -0.125,0.015625 -0.21875,0.015625 -0.21875,0.203125 0,0.015625 0,0.109375 0.140625,0.109375 0.296875,0 0.625,-0.03125 0.921875,-0.03125 C 1.703125,-0.03125 2.09375,0 2.453125,0 2.515625,0 2.625,0 2.625,-0.203125 2.625,-0.296875 2.53125,-0.3125 2.515625,-0.3125 c -0.09375,0 -0.40625,-0.03125 -0.40625,-0.3125 0,-0.15625 0.15625,-0.3125 0.265625,-0.4375 L 3.40625,-2.140625 4.296875,-3.125 l 1,2.390625 c 0.046875,0.109375 0.0625,0.109375 0.0625,0.140625 0,0.078125 -0.203125,0.25 -0.578125,0.28125 C 4.671875,-0.296875 4.578125,-0.296875 4.578125,-0.125 4.578125,0 4.6875,0 4.71875,0 5,0 5.703125,-0.03125 5.984375,-0.03125 6.234375,-0.03125 6.84375,0 7.09375,0 c 0.0625,0 0.1875,0 0.1875,-0.1875 0,-0.125 -0.109375,-0.125 -0.1875,-0.125 -0.65625,0 -0.6875,-0.03125 -0.859375,-0.4375 C 5.859375,-1.671875 5.1875,-3.234375 4.953125,-3.828125 5.625,-4.53125 6.671875,-5.71875 7,-5.984375 7.28125,-6.234375 7.671875,-6.46875 8.265625,-6.5 c 0.125,-0.015625 0.21875,-0.015625 0.21875,-0.203125 0,0 0,-0.109375 -0.125,-0.109375 -0.296875,0 -0.640625,0.03125 -0.9375,0.03125 -0.375,0 -0.75,-0.03125 -1.109375,-0.03125 -0.0625,0 -0.1875,0 -0.1875,0.203125 0,0.0625 0.046875,0.09375 0.109375,0.109375 0.09375,0.015625 0.40625,0.03125 0.40625,0.3125 0,0.140625 -0.109375,0.265625 -0.1875,0.359375 z m 0,0"
           id="id-f0a91aae-6e30-4710-aadd-ea41aa061f15" />
      </g>
    </g>
    <g
       fill="#000000"
       fill-opacity="1"
       id="id-2476a165-f656-41fe-8c5d-8eb8079f8372"
       transform="translate(-199.117,-139.403)">
      <g
         transform="translate(404.399,146.215)"
         id="g1029">
        <path
           d="M 5.953125,-5.671875 6.09375,-5.8125 C 6.390625,-6.109375 6.71875,-6.453125 7.390625,-6.5 7.5,-6.515625 7.59375,-6.515625 7.59375,-6.6875 c 0,-0.078125 -0.046875,-0.125 -0.125,-0.125 -0.265625,0 -0.546875,0.03125 -0.8125,0.03125 -0.34375,0 -0.6875,-0.03125 -1,-0.03125 -0.0625,0 -0.1875,0 -0.1875,0.1875 0,0.109375 0.09375,0.125 0.140625,0.125 0.078125,0 0.359375,0.015625 0.359375,0.234375 0,0.171875 -0.234375,0.421875 -0.265625,0.46875 L 3.390625,-3.125 2.296875,-6.09375 C 2.234375,-6.234375 2.234375,-6.25 2.234375,-6.265625 2.234375,-6.5 2.71875,-6.5 2.828125,-6.5 c 0.125,0 0.234375,0 0.234375,-0.203125 0,-0.109375 -0.125,-0.109375 -0.15625,-0.109375 -0.28125,0 -0.96875,0.03125 -1.25,0.03125 -0.25,0 -0.875,-0.03125 -1.125,-0.03125 -0.046875,0 -0.1875,0 -0.1875,0.203125 C 0.34375,-6.5 0.453125,-6.5 0.578125,-6.5 c 0.59375,0 0.640625,0.09375 0.734375,0.34375 L 2.53125,-2.875 c 0.015625,0.03125 0.046875,0.140625 0.046875,0.15625 0,0.03125 -0.40625,1.640625 -0.453125,1.828125 C 2,-0.34375 1.984375,-0.3125 1.1875,-0.3125 c -0.1875,0 -0.265625,0 -0.265625,0.203125 C 0.921875,0 1.03125,0 1.0625,0 c 0.265625,0 0.96875,-0.03125 1.25,-0.03125 0.28125,0 1,0.03125 1.28125,0.03125 0.0625,0 0.1875,0 0.1875,-0.203125 C 3.78125,-0.3125 3.6875,-0.3125 3.5,-0.3125 c -0.015625,0 -0.203125,0 -0.375,-0.015625 C 2.90625,-0.34375 2.84375,-0.375 2.84375,-0.484375 c 0,-0.078125 0.09375,-0.421875 0.140625,-0.625 l 0.359375,-1.40625 c 0.046875,-0.203125 0.0625,-0.21875 0.140625,-0.3125 z m 0,0"
           id="id-1d79ce25-71b3-4f2a-b00d-3c65c4b74655" />
      </g>
    </g>
    <g
       fill="#000000"
       fill-opacity="1"
       id="id-51c3fb77-90d8-4cd6-9350-0f0fb6e3030c"
       transform="translate(-199.117,-139.403)">
      <g
         transform="translate(243.233,178.358)"
         id="g2349">
        <path
           d="M 2.5,-6.921875 1.15625,-5.5625 1.328125,-5.390625 2.5,-6.40625 3.640625,-5.390625 3.8125,-5.5625 Z m 0,0"
           id="id-2c6aa09b-4ea2-4837-9a61-fa18d2748581" />
      </g>
    </g>
    <g
       fill="#000000"
       fill-opacity="1"
       id="id-a870e599-44cb-49c1-a0ff-22092586a6a9"
       transform="translate(-199.117,-139.403)">
      <g
         transform="translate(240.376,180.876)"
         id="g1067">
        <path
           d="M 4.828125,-4.09375 4,-6.078125 c -0.03125,-0.078125 -0.046875,-0.125 -0.046875,-0.125 0,-0.0625 0.15625,-0.25 0.578125,-0.296875 0.109375,-0.015625 0.203125,-0.015625 0.203125,-0.1875 0,-0.125 -0.125,-0.125 -0.15625,-0.125 -0.40625,0 -0.828125,0.03125 -1.25,0.03125 -0.25,0 -0.859375,-0.03125 -1.109375,-0.03125 -0.0625,0 -0.1875,0 -0.1875,0.203125 C 2.03125,-6.5 2.140625,-6.5 2.265625,-6.5 c 0.59375,0 0.65625,0.09375 0.75,0.3125 l 1.171875,2.78125 -2.109375,2.265625 -0.125,0.109375 C 1.46875,-0.5 1,-0.34375 0.484375,-0.3125 c -0.125,0.015625 -0.21875,0.015625 -0.21875,0.203125 0,0.015625 0,0.109375 0.140625,0.109375 0.296875,0 0.625,-0.03125 0.921875,-0.03125 C 1.703125,-0.03125 2.09375,0 2.453125,0 2.515625,0 2.625,0 2.625,-0.203125 2.625,-0.296875 2.53125,-0.3125 2.515625,-0.3125 c -0.09375,0 -0.40625,-0.03125 -0.40625,-0.3125 0,-0.15625 0.15625,-0.3125 0.265625,-0.4375 L 3.40625,-2.140625 4.296875,-3.125 l 1,2.390625 c 0.046875,0.109375 0.0625,0.109375 0.0625,0.140625 0,0.078125 -0.203125,0.25 -0.578125,0.28125 C 4.671875,-0.296875 4.578125,-0.296875 4.578125,-0.125 4.578125,0 4.6875,0 4.71875,0 5,0 5.703125,-0.03125 5.984375,-0.03125 6.234375,-0.03125 6.84375,0 7.09375,0 c 0.0625,0 0.1875,0 0.1875,-0.1875 0,-0.125 -0.109375,-0.125 -0.1875,-0.125 -0.65625,0 -0.6875,-0.03125 -0.859375,-0.4375 C 5.859375,-1.671875 5.1875,-3.234375 4.953125,-3.828125 5.625,-4.53125 6.671875,-5.71875 7,-5.984375 7.28125,-6.234375 7.671875,-6.46875 8.265625,-6.5 c 0.125,-0.015625 0.21875,-0.015625 0.21875,-0.203125 0,0 0,-0.109375 -0.125,-0.109375 -0.296875,0 -0.640625,0.03125 -0.9375,0.03125 -0.375,0 -0.75,-0.03125 -1.109375,-0.03125 -0.0625,0 -0.1875,0 -0.1875,0.203125 0,0.0625 0.046875,0.09375 0.109375,0.109375 0.09375,0.015625 0.40625,0.03125 0.40625,0.3125 0,0.140625 -0.109375,0.265625 -0.1875,0.359375 z m 0,0"
           id="id-ec793df6-90db-46d4-96e0-b2276c2adec5" />
      </g>
    </g>
    <g
       fill="#000000"
       fill-opacity="1"
       id="id-8aa7bf3b-0c59-41f4-acff-ab60569b7e79"
       transform="translate(-199.117,-139.403)">
      <g
         transform="translate(365.42,178.358)"
         id="g3171">
        <path
           d="M 4.140625,-6.515625 3.984375,-6.65625 c 0,0 -0.375,0.46875 -0.8125,0.46875 -0.234375,0 -0.484375,-0.140625 -0.65625,-0.25 C 2.25,-6.59375 2.078125,-6.65625 1.90625,-6.65625 c -0.375,0 -0.578125,0.21875 -1.078125,0.78125 l 0.15625,0.140625 c 0,0 0.375,-0.46875 0.8125,-0.46875 0.234375,0 0.484375,0.140625 0.65625,0.234375 0.265625,0.171875 0.453125,0.234375 0.625,0.234375 0.375,0 0.5625,-0.21875 1.0625,-0.78125 z m 0,0"
           id="id-bee6a700-6fa9-45d7-adf4-5b8a332a1998" />
      </g>
    </g>
    <g
       fill="#000000"
       fill-opacity="1"
       id="id-2e1f91e4-da3b-48fe-821e-3ea67be038e6"
       transform="translate(-199.117,-139.403)">
      <g
         transform="translate(363.912,180.876)"
         id="g5875">
        <path
           d="M 5.953125,-5.671875 6.09375,-5.8125 C 6.390625,-6.109375 6.71875,-6.453125 7.390625,-6.5 7.5,-6.515625 7.59375,-6.515625 7.59375,-6.6875 c 0,-0.078125 -0.046875,-0.125 -0.125,-0.125 -0.265625,0 -0.546875,0.03125 -0.8125,0.03125 -0.34375,0 -0.6875,-0.03125 -1,-0.03125 -0.0625,0 -0.1875,0 -0.1875,0.1875 0,0.109375 0.09375,0.125 0.140625,0.125 0.078125,0 0.359375,0.015625 0.359375,0.234375 0,0.171875 -0.234375,0.421875 -0.265625,0.46875 L 3.390625,-3.125 2.296875,-6.09375 C 2.234375,-6.234375 2.234375,-6.25 2.234375,-6.265625 2.234375,-6.5 2.71875,-6.5 2.828125,-6.5 c 0.125,0 0.234375,0 0.234375,-0.203125 0,-0.109375 -0.125,-0.109375 -0.15625,-0.109375 -0.28125,0 -0.96875,0.03125 -1.25,0.03125 -0.25,0 -0.875,-0.03125 -1.125,-0.03125 -0.046875,0 -0.1875,0 -0.1875,0.203125 C 0.34375,-6.5 0.453125,-6.5 0.578125,-6.5 c 0.59375,0 0.640625,0.09375 0.734375,0.34375 L 2.53125,-2.875 c 0.015625,0.03125 0.046875,0.140625 0.046875,0.15625 0,0.03125 -0.40625,1.640625 -0.453125,1.828125 C 2,-0.34375 1.984375,-0.3125 1.1875,-0.3125 c -0.1875,0 -0.265625,0 -0.265625,0.203125 C 0.921875,0 1.03125,0 1.0625,0 c 0.265625,0 0.96875,-0.03125 1.25,-0.03125 0.28125,0 1,0.03125 1.28125,0.03125 0.0625,0 0.1875,0 0.1875,-0.203125 C 3.78125,-0.3125 3.6875,-0.3125 3.5,-0.3125 c -0.015625,0 -0.203125,0 -0.375,-0.015625 C 2.90625,-0.34375 2.84375,-0.375 2.84375,-0.484375 c 0,-0.078125 0.09375,-0.421875 0.140625,-0.625 l 0.359375,-1.40625 c 0.046875,-0.203125 0.0625,-0.21875 0.140625,-0.3125 z m 0,0"
           id="id-b4d78b8e-0cc7-4312-ae3c-24a5495e4c46" />
      </g>
    </g>
    <path
       fill="none"
       stroke-width="0.39848"
       stroke-linecap="butt"
       stroke-linejoin="miter"
       stroke="#000000"
       stroke-opacity="1"
       stroke-miterlimit="10"
       d="M 13.430252,11.984223 36.465408,31.210785"
       id="id-fc42481e-df32-4e5c-8f33-505ca20ca1b5" />
    <path
       fill="none"
       stroke-width="0.398465"
       stroke-linecap="round"
       stroke-linejoin="round"
       stroke="#000000"
       stroke-opacity="1"
       stroke-miterlimit="10"
       d="m 10.461502,12.620941 c 1.210938,-0.859375 2.292968,-0.839844 3.121094,-0.507812 -0.472657,-0.757813 -0.6875,-1.820313 -0.05859,-3.1640626"
       id="id-30d50532-c683-41fa-a3e8-baa86f339ea4" />
    <path
       fill="none"
       stroke-width="0.398465"
       stroke-linecap="round"
       stroke-linejoin="round"
       stroke="#000000"
       stroke-opacity="1"
       stroke-miterlimit="10"
       d="m 36.559158,28.175629 c -0.628906,1.34375 -0.417969,2.40625 0.05859,3.164062 -0.832031,-0.332031 -1.914063,-0.351562 -3.125,0.507812"
       id="id-baf6637c-a924-45a1-8fe5-ac3ae1a580d6" />
    <g
       fill="#000000"
       fill-opacity="1"
       id="id-aac9c4ff-8a09-4181-a4e7-50dda7fcbc3a"
       transform="translate(-199.117,-139.403)">
      <g
         transform="translate(214.852,165.487)"
         id="g7551">
        <path
           d="m 5.671875,-2.390625 c 0,-0.265625 -0.09375,-0.28125 -0.109375,-0.28125 -0.109375,0 -0.125,0.203125 -0.125,0.28125 -0.015625,0.515625 -0.40625,1.09375 -1.046875,1.09375 -0.5,0 -0.84375,-0.3125 -1.234375,-0.671875 -0.375,-0.328125 -0.78125,-0.703125 -1.328125,-0.703125 -0.796875,0 -1.296875,0.8125 -1.296875,1.578125 0,0.265625 0.109375,0.28125 0.125,0.28125 0.109375,0 0.109375,-0.1875 0.125,-0.28125 0.015625,-0.515625 0.390625,-1.09375 1.046875,-1.09375 0.5,0 0.84375,0.3125 1.234375,0.671875 0.359375,0.328125 0.78125,0.703125 1.328125,0.703125 0.796875,0 1.28125,-0.8125 1.28125,-1.578125 z m 0,0"
           id="id-dd1ddeca-4929-4917-a3e5-cd7b13bc78cc" />
      </g>
    </g>
    <path
       fill="none"
       stroke-width="0.39848"
       stroke-linecap="butt"
       stroke-linejoin="miter"
       stroke="#000000"
       stroke-opacity="1"
       stroke-miterlimit="10"
       d="M 13.258377,4.3201597 H 77.895096"
       id="id-ba71e877-ceae-47ee-a0f3-7ab97a3b7428" />
    <path
       fill="none"
       stroke-width="0.39848"
       stroke-linecap="round"
       stroke-linejoin="round"
       stroke="#000000"
       stroke-opacity="1"
       stroke-miterlimit="10"
       d="m 76.024002,1.9295347 c 0.378906,1.4375 1.222656,2.113281 2.070313,2.3906252 -0.847657,0.2812498 -1.691407,0.9570308 -2.070313,2.3906248"
       id="id-094ee00e-928c-4c3a-9d80-0f8964feef73" />
    <path
       fill="none"
       stroke-width="0.39848"
       stroke-linecap="butt"
       stroke-linejoin="miter"
       stroke="#000000"
       stroke-opacity="1"
       stroke-miterlimit="10"
       d="m 135.28181,10.656098 24.72266,20.898437"
       id="id-1f4cdbda-6fd5-4f18-8a29-8342f5f97055" />
    <path
       fill="none"
       stroke-width="0.398463"
       stroke-linecap="round"
       stroke-linejoin="round"
       stroke="#000000"
       stroke-opacity="1"
       stroke-miterlimit="10"
       d="m 159.0201,27.593598 c -0.63672,1.339843 -0.42969,2.402343 0.0391,3.164062 -0.82813,-0.335938 -1.91016,-0.363281 -3.125,0.484375"
       id="id-6c579383-8c2c-4d41-afbd-7f3698b7f23e" />
    <path
       fill="none"
       stroke-width="0.398463"
       stroke-linecap="round"
       stroke-linejoin="round"
       stroke="#000000"
       stroke-opacity="1"
       stroke-miterlimit="10"
       d="m 160.11775,28.519379 c -0.63672,1.339843 -0.42969,2.402343 0.0391,3.164062 -0.83203,-0.335937 -1.91015,-0.363281 -3.1289,0.488281"
       id="id-55a3b9df-34a1-40ca-aa11-ff80ac9e391c" />
    <path
       fill="none"
       stroke-width="0.39848"
       stroke-linecap="butt"
       stroke-linejoin="miter"
       stroke="#000000"
       stroke-opacity="1"
       stroke-miterlimit="10"
       d="M 54.781814,31.370941 78.984939,10.91391"
       id="id-aad6a372-5414-4e37-9eae-a44dfeba98a5" />
    <path
       fill="none"
       stroke-width="0.398464"
       stroke-linecap="round"
       stroke-linejoin="round"
       stroke="#000000"
       stroke-opacity="1"
       stroke-miterlimit="10"
       d="m 74.914628,11.222504 c 1.214843,0.851562 2.296874,0.824218 3.128905,0.488281 -0.472656,0.761718 -0.679688,1.824219 -0.03906,3.164062"
       id="id-7d71b068-e7f8-4494-97cc-fe19fb54c688" />
    <path
       fill="none"
       stroke-width="0.398464"
       stroke-linecap="round"
       stroke-linejoin="round"
       stroke="#000000"
       stroke-opacity="1"
       stroke-miterlimit="10"
       d="m 76.012283,10.296723 c 1.214844,0.851562 2.296876,0.824218 3.125,0.488281 -0.46875,0.761718 -0.675781,1.824218 -0.03906,3.164062"
       id="id-8b22d304-8046-4d4d-b2dd-33309973754d" />
    <path
       fill="none"
       stroke-width="0.39848"
       stroke-linecap="butt"
       stroke-linejoin="miter"
       stroke="#000000"
       stroke-opacity="1"
       stroke-miterlimit="10"
       d="M 136.79744,4.3201597 H 200.3951"
       id="id-092a308f-3fd0-44b6-9bba-5a3a9c29e46c" />
    <path
       fill="none"
       stroke-width="0.39848"
       stroke-linecap="round"
       stroke-linejoin="round"
       stroke="#000000"
       stroke-opacity="1"
       stroke-miterlimit="10"
       d="m 198.524,1.9295347 c 0.37891,1.4375 1.22266,2.113281 2.07031,2.3906252 -0.84765,0.2812498 -1.6914,0.9570308 -2.07031,2.3906248"
       id="id-541e5a7d-ff16-4ac6-b5b3-cf096599219a" />
    <path
       fill="none"
       stroke-width="0.39848"
       stroke-linecap="butt"
       stroke-linejoin="miter"
       stroke="#000000"
       stroke-opacity="1"
       stroke-miterlimit="10"
       d="M 178.85603,30.370941 201.5826,10.917816"
       id="id-0c9dbb93-9054-4fc8-ac97-8a2a080d3dca" />
    <path
       fill="none"
       stroke-width="0.398451"
       stroke-linecap="round"
       stroke-linejoin="round"
       stroke="#000000"
       stroke-opacity="1"
       stroke-miterlimit="10"
       d="m 178.98885,33.406097 c -0.64454,-1.335937 -0.44532,-2.398437 0.0195,-3.164062 -0.82813,0.339843 -1.91016,0.375 -3.12891,-0.46875"
       id="id-53a5b5e3-c43d-425d-b5b4-43772b685f46" />
    <path
       fill="none"
       stroke-width="0.398451"
       stroke-linecap="round"
       stroke-linejoin="round"
       stroke="#000000"
       stroke-opacity="1"
       stroke-miterlimit="10"
       d="m 198.60603,10.32016 c 1.21875,0.84375 2.30078,0.808593 3.12891,0.46875 -0.46484,0.761718 -0.66797,1.824219 -0.0195,3.160156"
       id="id-eef25043-61ae-4a93-ad74-6d029265d966" />
    <g
       fill="#000000"
       fill-opacity="1"
       id="id-fc400ee3-353e-42d6-a1d6-134fe0e99b58"
       transform="translate(-199.117,-139.403)">
      <g
         transform="translate(391.043,165.613)"
         id="g718">
        <path
           d="m 5.671875,-2.390625 c 0,-0.265625 -0.09375,-0.28125 -0.109375,-0.28125 -0.109375,0 -0.125,0.203125 -0.125,0.28125 -0.015625,0.515625 -0.40625,1.09375 -1.046875,1.09375 -0.5,0 -0.84375,-0.3125 -1.234375,-0.671875 -0.375,-0.328125 -0.78125,-0.703125 -1.328125,-0.703125 -0.796875,0 -1.296875,0.8125 -1.296875,1.578125 0,0.265625 0.109375,0.28125 0.125,0.28125 0.109375,0 0.109375,-0.1875 0.125,-0.28125 0.015625,-0.515625 0.390625,-1.09375 1.046875,-1.09375 0.5,0 0.84375,0.3125 1.234375,0.671875 0.359375,0.328125 0.78125,0.703125 1.328125,0.703125 0.796875,0 1.28125,-0.8125 1.28125,-1.578125 z m 0,0"
           id="id-b6c1b5df-680e-46c2-aa47-9b5c5c647f27" />
      </g>
    </g>
  </g>
</svg>
