<?xml version="1.0" encoding="UTF-8" standalone="no"?>
<!-- Created with Inkscape (http://www.inkscape.org/) -->

<svg
   width="150.19603mm"
   height="29.261877mm"
   viewBox="0 0 150.19603 29.261878"
   version="1.1"
   id="svg1"
   inkscape:version="1.3 (0e150ed6c4, 2023-07-21)"
   sodipodi:docname="factor.svg"
   xmlns:inkscape="http://www.inkscape.org/namespaces/inkscape"
   xmlns:sodipodi="http://sodipodi.sourceforge.net/DTD/sodipodi-0.dtd"
   xmlns="http://www.w3.org/2000/svg"
   xmlns:svg="http://www.w3.org/2000/svg"
   xmlns:ns7="http://www.iki.fi/pav/software/textext/">
  <sodipodi:namedview
     id="namedview1"
     pagecolor="#282a37"
     bordercolor="#000000"
     borderopacity="0.25"
     inkscape:showpageshadow="2"
     inkscape:pageopacity="0.0"
     inkscape:pagecheckerboard="0"
     inkscape:deskcolor="#d1d1d1"
     inkscape:document-units="mm"
     inkscape:zoom="2.4001203"
     inkscape:cx="283.9441"
     inkscape:cy="55.205566"
     inkscape:window-width="1900"
     inkscape:window-height="1035"
     inkscape:window-x="9"
     inkscape:window-y="9"
     inkscape:window-maximized="1"
     inkscape:current-layer="svg1" />
  <defs
     id="defs1">
    <filter
       style="color-interpolation-filters:sRGB"
       inkscape:label="Colorize"
       id="filter2"
       x="0"
       y="0"
       width="1"
       height="1">
      <feComposite
         in2="SourceGraphic"
         operator="arithmetic"
         k1="0"
         k2="0"
         result="composite1"
         id="feComposite1"
         k3="0"
         k4="0" />
      <feColorMatrix
         in="composite1"
         values="1"
         type="saturate"
         result="colormatrix1"
         id="feColorMatrix1" />
      <feFlood
         flood-opacity="1"
         flood-color="rgb(248,248,242)"
         result="flood1"
         id="feFlood1" />
      <feBlend
         in="flood1"
         in2="colormatrix1"
         mode="normal"
         result="blend1"
         id="feBlend1" />
      <feBlend
         in2="blend1"
         mode="normal"
         result="blend2"
         id="feBlend2" />
      <feColorMatrix
         in="blend2"
         values="1"
         type="saturate"
         result="colormatrix2"
         id="feColorMatrix2" />
      <feComposite
         in="colormatrix2"
         in2="SourceGraphic"
         operator="in"
         result="composite2"
         id="feComposite2" />
    </filter>
    <filter
       style="color-interpolation-filters:sRGB"
       inkscape:label="Colorize"
       id="filter4"
       x="0"
       y="0"
       width="1.002218"
       height="1">
      <feComposite
         in2="SourceGraphic"
         operator="arithmetic"
         k1="0"
         k2="0"
         result="composite1"
         id="feComposite3"
         k3="0"
         k4="0" />
      <feColorMatrix
         in="composite1"
         values="1"
         type="saturate"
         result="colormatrix1"
         id="feColorMatrix3" />
      <feFlood
         flood-opacity="1"
         flood-color="rgb(248,248,242)"
         result="flood1"
         id="feFlood3" />
      <feBlend
         in="flood1"
         in2="colormatrix1"
         mode="normal"
         result="blend1"
         id="feBlend3" />
      <feBlend
         in2="blend1"
         mode="normal"
         result="blend2"
         id="feBlend4" />
      <feColorMatrix
         in="blend2"
         values="1"
         type="saturate"
         result="colormatrix2"
         id="feColorMatrix4" />
      <feComposite
         in="colormatrix2"
         in2="SourceGraphic"
         operator="in"
         result="fbSourceGraphic"
         id="feComposite4" />
      <feColorMatrix
         result="fbSourceGraphicAlpha"
         in="fbSourceGraphic"
         values="0 0 0 -1 0 0 0 0 -1 0 0 0 0 -1 0 0 0 0 1 0"
         id="feColorMatrix5" />
      <feComposite
         id="feComposite5"
         in2="fbSourceGraphic"
         operator="arithmetic"
         k1="0"
         k2="0"
         result="composite1"
         in="fbSourceGraphic"
         k3="0"
         k4="0" />
      <feColorMatrix
         id="feColorMatrix6"
         in="composite1"
         values="1"
         type="saturate"
         result="colormatrix1" />
      <feFlood
         id="feFlood6"
         flood-opacity="1"
         flood-color="rgb(248,248,242)"
         result="flood1" />
      <feBlend
         id="feBlend6"
         in="flood1"
         in2="colormatrix1"
         mode="normal"
         result="blend1" />
      <feBlend
         id="feBlend7"
         in2="blend1"
         mode="normal"
         result="blend2" />
      <feColorMatrix
         id="feColorMatrix7"
         in="blend2"
         values="1"
         type="saturate"
         result="colormatrix2" />
      <feComposite
         id="feComposite7"
         in="colormatrix2"
         in2="fbSourceGraphic"
         operator="in"
         result="composite2" />
    </filter>
    <filter
       style="color-interpolation-filters:sRGB"
       inkscape:label="Colorize"
       id="filter9"
       x="0"
       y="0"
       width="1.0016943"
       height="1">
      <feComposite
         in2="SourceGraphic"
         operator="arithmetic"
         k1="0"
         k2="0"
         result="composite1"
         id="feComposite8"
         k3="0"
         k4="0" />
      <feColorMatrix
         in="composite1"
         values="1"
         type="saturate"
         result="colormatrix1"
         id="feColorMatrix8" />
      <feFlood
         flood-opacity="1"
         flood-color="rgb(248,248,242)"
         result="flood1"
         id="feFlood8" />
      <feBlend
         in="flood1"
         in2="colormatrix1"
         mode="normal"
         result="blend1"
         id="feBlend8" />
      <feBlend
         in2="blend1"
         mode="normal"
         result="blend2"
         id="feBlend9" />
      <feColorMatrix
         in="blend2"
         values="1"
         type="saturate"
         result="colormatrix2"
         id="feColorMatrix9" />
      <feComposite
         in="colormatrix2"
         in2="SourceGraphic"
         operator="in"
         result="fbSourceGraphic"
         id="feComposite9" />
      <feColorMatrix
         result="fbSourceGraphicAlpha"
         in="fbSourceGraphic"
         values="0 0 0 -1 0 0 0 0 -1 0 0 0 0 -1 0 0 0 0 1 0"
         id="feColorMatrix10" />
      <feComposite
         id="feComposite10"
         in2="fbSourceGraphic"
         operator="arithmetic"
         k1="0"
         k2="0"
         result="composite1"
         in="fbSourceGraphic"
         k3="0"
         k4="0" />
      <feColorMatrix
         id="feColorMatrix11"
         in="composite1"
         values="1"
         type="saturate"
         result="colormatrix1" />
      <feFlood
         id="feFlood11"
         flood-opacity="1"
         flood-color="rgb(248,248,242)"
         result="flood1" />
      <feBlend
         id="feBlend11"
         in="flood1"
         in2="colormatrix1"
         mode="normal"
         result="blend1" />
      <feBlend
         id="feBlend12"
         in2="blend1"
         mode="normal"
         result="blend2" />
      <feColorMatrix
         id="feColorMatrix12"
         in="blend2"
         values="1"
         type="saturate"
         result="colormatrix2" />
      <feComposite
         id="feComposite12"
         in="colormatrix2"
         in2="fbSourceGraphic"
         operator="in"
         result="composite2" />
    </filter>
    <filter
       style="color-interpolation-filters:sRGB"
       inkscape:label="Colorize"
       id="filter14"
       x="0"
       y="0"
       width="1"
       height="1.0025606">
      <feComposite
         in2="SourceGraphic"
         operator="arithmetic"
         k1="0"
         k2="0"
         result="composite1"
         id="feComposite13"
         k3="0"
         k4="0" />
      <feColorMatrix
         in="composite1"
         values="1"
         type="saturate"
         result="colormatrix1"
         id="feColorMatrix13" />
      <feFlood
         flood-opacity="1"
         flood-color="rgb(248,248,242)"
         result="flood1"
         id="feFlood13" />
      <feBlend
         in="flood1"
         in2="colormatrix1"
         mode="normal"
         result="blend1"
         id="feBlend13" />
      <feBlend
         in2="blend1"
         mode="normal"
         result="blend2"
         id="feBlend14" />
      <feColorMatrix
         in="blend2"
         values="1"
         type="saturate"
         result="colormatrix2"
         id="feColorMatrix14" />
      <feComposite
         in="colormatrix2"
         in2="SourceGraphic"
         operator="in"
         result="composite2"
         id="feComposite14" />
    </filter>
    <filter
       style="color-interpolation-filters:sRGB"
       inkscape:label="Colorize"
       id="filter16"
       x="0"
       y="0"
       width="1"
       height="1.0025606">
      <feComposite
         in2="SourceGraphic"
         operator="arithmetic"
         k1="0"
         k2="0"
         result="composite1"
         id="feComposite15"
         k3="0"
         k4="0" />
      <feColorMatrix
         in="composite1"
         values="1"
         type="saturate"
         result="colormatrix1"
         id="feColorMatrix15" />
      <feFlood
         flood-opacity="1"
         flood-color="rgb(248,248,242)"
         result="flood1"
         id="feFlood15" />
      <feBlend
         in="flood1"
         in2="colormatrix1"
         mode="normal"
         result="blend1"
         id="feBlend15" />
      <feBlend
         in2="blend1"
         mode="normal"
         result="blend2"
         id="feBlend16" />
      <feColorMatrix
         in="blend2"
         values="1"
         type="saturate"
         result="colormatrix2"
         id="feColorMatrix16" />
      <feComposite
         in="colormatrix2"
         in2="SourceGraphic"
         operator="in"
         result="composite2"
         id="feComposite16" />
    </filter>
    <filter
       style="color-interpolation-filters:sRGB"
       inkscape:label="Colorize"
       id="filter18"
       x="0"
       y="0"
       width="1"
       height="1">
      <feComposite
         in2="SourceGraphic"
         operator="arithmetic"
         k1="0"
         k2="0"
         result="composite1"
         id="feComposite17"
         k3="0"
         k4="0" />
      <feColorMatrix
         in="composite1"
         values="1"
         type="saturate"
         result="colormatrix1"
         id="feColorMatrix17" />
      <feFlood
         flood-opacity="1"
         flood-color="rgb(248,248,242)"
         result="flood1"
         id="feFlood17" />
      <feBlend
         in="flood1"
         in2="colormatrix1"
         mode="normal"
         result="blend1"
         id="feBlend17" />
      <feBlend
         in2="blend1"
         mode="normal"
         result="blend2"
         id="feBlend18" />
      <feColorMatrix
         in="blend2"
         values="1"
         type="saturate"
         result="colormatrix2"
         id="feColorMatrix18" />
      <feComposite
         in="colormatrix2"
         in2="SourceGraphic"
         operator="in"
         result="fbSourceGraphic"
         id="feComposite18" />
      <feColorMatrix
         result="fbSourceGraphicAlpha"
         in="fbSourceGraphic"
         values="0 0 0 -1 0 0 0 0 -1 0 0 0 0 -1 0 0 0 0 1 0"
         id="feColorMatrix19" />
      <feComposite
         id="feComposite19"
         in2="fbSourceGraphic"
         operator="arithmetic"
         k1="0"
         k2="0"
         result="composite1"
         in="fbSourceGraphic"
         k3="0"
         k4="0" />
      <feColorMatrix
         id="feColorMatrix20"
         in="composite1"
         values="1"
         type="saturate"
         result="colormatrix1" />
      <feFlood
         id="feFlood20"
         flood-opacity="1"
         flood-color="rgb(248,248,242)"
         result="flood1" />
      <feBlend
         id="feBlend20"
         in="flood1"
         in2="colormatrix1"
         mode="normal"
         result="blend1" />
      <feBlend
         id="feBlend21"
         in2="blend1"
         mode="normal"
         result="blend2" />
      <feColorMatrix
         id="feColorMatrix21"
         in="blend2"
         values="1"
         type="saturate"
         result="colormatrix2" />
      <feComposite
         id="feComposite21"
         in="colormatrix2"
         in2="fbSourceGraphic"
         operator="in"
         result="composite2" />
    </filter>
    <filter
       style="color-interpolation-filters:sRGB"
       inkscape:label="Colorize"
       id="filter23"
       x="0"
       y="0"
       width="1"
       height="1">
      <feComposite
         in2="SourceGraphic"
         operator="arithmetic"
         k1="0"
         k2="0"
         result="composite1"
         id="feComposite22"
         k3="0"
         k4="0" />
      <feColorMatrix
         in="composite1"
         values="1"
         type="saturate"
         result="colormatrix1"
         id="feColorMatrix22" />
      <feFlood
         flood-opacity="1"
         flood-color="rgb(248,248,242)"
         result="flood1"
         id="feFlood22" />
      <feBlend
         in="flood1"
         in2="colormatrix1"
         mode="normal"
         result="blend1"
         id="feBlend22" />
      <feBlend
         in2="blend1"
         mode="normal"
         result="blend2"
         id="feBlend23" />
      <feColorMatrix
         in="blend2"
         values="1"
         type="saturate"
         result="colormatrix2"
         id="feColorMatrix23" />
      <feComposite
         in="colormatrix2"
         in2="SourceGraphic"
         operator="in"
         result="composite2"
         id="feComposite23" />
    </filter>
    <filter
       style="color-interpolation-filters:sRGB"
       inkscape:label="Colorize"
       id="filter25"
       x="0"
       y="0"
       width="1"
       height="1">
      <feComposite
         in2="SourceGraphic"
         operator="arithmetic"
         k1="0"
         k2="0"
         result="composite1"
         id="feComposite6"
         k3="0"
         k4="0" />
      <feColorMatrix
         in="composite1"
         values="1"
         type="saturate"
         result="colormatrix1"
         id="feColorMatrix24" />
      <feFlood
         flood-opacity="1"
         flood-color="rgb(248,248,242)"
         result="flood1"
         id="feFlood24" />
      <feBlend
         in="flood1"
         in2="colormatrix1"
         mode="normal"
         result="blend1"
         id="feBlend24" />
      <feBlend
         in2="blend1"
         mode="normal"
         result="blend2"
         id="feBlend25" />
      <feColorMatrix
         in="blend2"
         values="1"
         type="saturate"
         result="colormatrix2"
         id="feColorMatrix25" />
      <feComposite
         in="colormatrix2"
         in2="SourceGraphic"
         operator="in"
         result="fbSourceGraphic"
         id="feComposite25" />
      <feColorMatrix
         result="fbSourceGraphicAlpha"
         in="fbSourceGraphic"
         values="0 0 0 -1 0 0 0 0 -1 0 0 0 0 -1 0 0 0 0 1 0"
         id="feColorMatrix26" />
      <feComposite
         id="feComposite26"
         in2="fbSourceGraphic"
         operator="arithmetic"
         k1="0"
         k2="0"
         result="composite1"
         in="fbSourceGraphic"
         k3="0"
         k4="0" />
      <feColorMatrix
         id="feColorMatrix27"
         in="composite1"
         values="1"
         type="saturate"
         result="colormatrix1" />
      <feFlood
         id="feFlood27"
         flood-opacity="1"
         flood-color="rgb(248,248,242)"
         result="flood1" />
      <feBlend
         id="feBlend27"
         in="flood1"
         in2="colormatrix1"
         mode="normal"
         result="blend1" />
      <feBlend
         id="feBlend28"
         in2="blend1"
         mode="normal"
         result="blend2" />
      <feColorMatrix
         id="feColorMatrix28"
         in="blend2"
         values="1"
         type="saturate"
         result="colormatrix2" />
      <feComposite
         id="feComposite28"
         in="colormatrix2"
         in2="fbSourceGraphic"
         operator="in"
         result="composite2" />
    </filter>
    <filter
       style="color-interpolation-filters:sRGB"
       inkscape:label="Colorize"
       id="filter32"
       x="0"
       y="0"
       width="1"
       height="1">
      <feComposite
         in2="SourceGraphic"
         operator="arithmetic"
         k1="0"
         k2="0"
         result="composite1"
         id="feComposite31"
         k3="0"
         k4="0" />
      <feColorMatrix
         in="composite1"
         values="1"
         type="saturate"
         result="colormatrix1"
         id="feColorMatrix31" />
      <feFlood
         flood-opacity="1"
         flood-color="rgb(248,248,242)"
         result="flood1"
         id="feFlood31" />
      <feBlend
         in="flood1"
         in2="colormatrix1"
         mode="normal"
         result="blend1"
         id="feBlend31" />
      <feBlend
         in2="blend1"
         mode="normal"
         result="blend2"
         id="feBlend32" />
      <feColorMatrix
         in="blend2"
         values="1"
         type="saturate"
         result="colormatrix2"
         id="feColorMatrix32" />
      <feComposite
         in="colormatrix2"
         in2="SourceGraphic"
         operator="in"
         result="composite2"
         id="feComposite32" />
    </filter>
  </defs>
  <g
     transform="matrix(0.705556,0,0,0.705556,2.645835e-4,3.52778e-4)"
     ns7:version="1.9.0"
     ns7:texconverter="pdflatex"
     ns7:pdfconverter="inkscape"
     ns7:text="\\[\\begin{tikzcd}\n\tX &amp;&amp; Y &amp; X &amp;&amp; Y \\\\\n\t&amp; {\\hat{X}} &amp;&amp;&amp; {\\tilde{Y}}\n\t\\arrow[&quot;\\sim&quot;', tail, from=1-1, to=2-2]\n\t\\arrow[from=1-1, to=1-3]\n\t\\arrow[tail, from=1-4, to=2-5]\n\t\\arrow[two heads, from=2-2, to=1-3]\n\t\\arrow[from=1-4, to=1-6]\n\t\\arrow[two heads, &quot;\\sim&quot;', from=2-5, to=1-6]\n\\end{tikzcd}\\]"
     ns7:preamble="/usr/share/inkscape/extensions/textext/default_packages.tex"
     ns7:scale="2.0"
     ns7:alignment="middle center"
     ns7:stroke-to-path="0"
     ns7:inkscapeversion="1.3"
     id="g7914"
     ns7:jacobian_sqrt="0.705556"
     style="filter:url(#filter32)">
    <defs
       id="id-7fd9a007-a3da-42ae-bdcf-ce5ff64b66a1">
      <g
         id="id-7a44c0e7-b4a9-4843-b4d2-f0aa276f81e4">
        <g
           id="id-cdcb5d3f-a790-4536-957f-d0ba7de30ae9" />
        <g
           id="id-e2f89c4a-1b23-44c8-b285-c5c2014408a6">
          <path
             d="M 4.828125,-4.09375 4,-6.078125 c -0.03125,-0.078125 -0.046875,-0.125 -0.046875,-0.125 0,-0.0625 0.15625,-0.25 0.578125,-0.296875 0.109375,-0.015625 0.203125,-0.015625 0.203125,-0.1875 0,-0.125 -0.125,-0.125 -0.15625,-0.125 -0.40625,0 -0.828125,0.03125 -1.25,0.03125 -0.25,0 -0.859375,-0.03125 -1.109375,-0.03125 -0.0625,0 -0.1875,0 -0.1875,0.203125 C 2.03125,-6.5 2.140625,-6.5 2.265625,-6.5 c 0.59375,0 0.65625,0.09375 0.75,0.3125 l 1.171875,2.78125 -2.109375,2.265625 -0.125,0.109375 C 1.46875,-0.5 1,-0.34375 0.484375,-0.3125 c -0.125,0.015625 -0.21875,0.015625 -0.21875,0.203125 0,0.015625 0,0.109375 0.140625,0.109375 0.296875,0 0.625,-0.03125 0.921875,-0.03125 C 1.703125,-0.03125 2.09375,0 2.453125,0 2.515625,0 2.625,0 2.625,-0.203125 2.625,-0.296875 2.53125,-0.3125 2.515625,-0.3125 c -0.09375,0 -0.40625,-0.03125 -0.40625,-0.3125 0,-0.15625 0.15625,-0.3125 0.265625,-0.4375 L 3.40625,-2.140625 4.296875,-3.125 l 1,2.390625 c 0.046875,0.109375 0.0625,0.109375 0.0625,0.140625 0,0.078125 -0.203125,0.25 -0.578125,0.28125 C 4.671875,-0.296875 4.578125,-0.296875 4.578125,-0.125 4.578125,0 4.6875,0 4.71875,0 5,0 5.703125,-0.03125 5.984375,-0.03125 6.234375,-0.03125 6.84375,0 7.09375,0 c 0.0625,0 0.1875,0 0.1875,-0.1875 0,-0.125 -0.109375,-0.125 -0.1875,-0.125 -0.65625,0 -0.6875,-0.03125 -0.859375,-0.4375 C 5.859375,-1.671875 5.1875,-3.234375 4.953125,-3.828125 5.625,-4.53125 6.671875,-5.71875 7,-5.984375 7.28125,-6.234375 7.671875,-6.46875 8.265625,-6.5 c 0.125,-0.015625 0.21875,-0.015625 0.21875,-0.203125 0,0 0,-0.109375 -0.125,-0.109375 -0.296875,0 -0.640625,0.03125 -0.9375,0.03125 -0.375,0 -0.75,-0.03125 -1.109375,-0.03125 -0.0625,0 -0.1875,0 -0.1875,0.203125 0,0.0625 0.046875,0.09375 0.109375,0.109375 0.09375,0.015625 0.40625,0.03125 0.40625,0.3125 0,0.140625 -0.109375,0.265625 -0.1875,0.359375 z m 0,0"
             id="id-6f2ab6e9-7f6b-4de3-88e6-13a96ec074cb" />
        </g>
        <g
           id="id-84ec1965-7926-41c9-a444-5dbc7164ab94">
          <path
             d="M 5.953125,-5.671875 6.09375,-5.8125 C 6.390625,-6.109375 6.71875,-6.453125 7.390625,-6.5 7.5,-6.515625 7.59375,-6.515625 7.59375,-6.6875 c 0,-0.078125 -0.046875,-0.125 -0.125,-0.125 -0.265625,0 -0.546875,0.03125 -0.8125,0.03125 -0.34375,0 -0.6875,-0.03125 -1,-0.03125 -0.0625,0 -0.1875,0 -0.1875,0.1875 0,0.109375 0.09375,0.125 0.140625,0.125 0.078125,0 0.359375,0.015625 0.359375,0.234375 0,0.171875 -0.234375,0.421875 -0.265625,0.46875 L 3.390625,-3.125 2.296875,-6.09375 C 2.234375,-6.234375 2.234375,-6.25 2.234375,-6.265625 2.234375,-6.5 2.71875,-6.5 2.828125,-6.5 c 0.125,0 0.234375,0 0.234375,-0.203125 0,-0.109375 -0.125,-0.109375 -0.15625,-0.109375 -0.28125,0 -0.96875,0.03125 -1.25,0.03125 -0.25,0 -0.875,-0.03125 -1.125,-0.03125 -0.046875,0 -0.1875,0 -0.1875,0.203125 C 0.34375,-6.5 0.453125,-6.5 0.578125,-6.5 c 0.59375,0 0.640625,0.09375 0.734375,0.34375 L 2.53125,-2.875 c 0.015625,0.03125 0.046875,0.140625 0.046875,0.15625 0,0.03125 -0.40625,1.640625 -0.453125,1.828125 C 2,-0.34375 1.984375,-0.3125 1.1875,-0.3125 c -0.1875,0 -0.265625,0 -0.265625,0.203125 C 0.921875,0 1.03125,0 1.0625,0 c 0.265625,0 0.96875,-0.03125 1.25,-0.03125 0.28125,0 1,0.03125 1.28125,0.03125 0.0625,0 0.1875,0 0.1875,-0.203125 C 3.78125,-0.3125 3.6875,-0.3125 3.5,-0.3125 c -0.015625,0 -0.203125,0 -0.375,-0.015625 C 2.90625,-0.34375 2.84375,-0.375 2.84375,-0.484375 c 0,-0.078125 0.09375,-0.421875 0.140625,-0.625 l 0.359375,-1.40625 c 0.046875,-0.203125 0.0625,-0.21875 0.140625,-0.3125 z m 0,0"
             id="id-e9769395-fdb6-4030-a65e-743c68593625" />
        </g>
        <g
           id="id-1a879a60-bbbb-4d99-bfbd-d6e3843fcd33" />
        <g
           id="id-e49c3d67-48d9-4a0d-8650-edc7bba750a0">
          <path
             d="M 2.5,-6.921875 1.15625,-5.5625 1.328125,-5.390625 2.5,-6.40625 3.640625,-5.390625 3.8125,-5.5625 Z m 0,0"
             id="id-8c5d498b-be23-4b49-aa73-8506204b0baa" />
        </g>
        <g
           id="id-dded288e-5c2a-4ca5-a897-d4acbb298617">
          <path
             d="M 4.140625,-6.515625 3.984375,-6.65625 c 0,0 -0.375,0.46875 -0.8125,0.46875 -0.234375,0 -0.484375,-0.140625 -0.65625,-0.25 C 2.25,-6.59375 2.078125,-6.65625 1.90625,-6.65625 c -0.375,0 -0.578125,0.21875 -1.078125,0.78125 l 0.15625,0.140625 c 0,0 0.375,-0.46875 0.8125,-0.46875 0.234375,0 0.484375,0.140625 0.65625,0.234375 0.265625,0.171875 0.453125,0.234375 0.625,0.234375 0.375,0 0.5625,-0.21875 1.0625,-0.78125 z m 0,0"
             id="id-dfb9e31b-b1b1-46ba-8f7b-79884a2f95cf" />
        </g>
        <g
           id="id-11bdf34e-5174-4db6-9eca-34951e084c0a" />
        <g
           id="id-5a7fcf30-adef-4424-b05f-96d05ce1e0d1">
          <path
             d="m 5.671875,-2.390625 c 0,-0.265625 -0.09375,-0.28125 -0.109375,-0.28125 -0.109375,0 -0.125,0.203125 -0.125,0.28125 -0.015625,0.515625 -0.40625,1.09375 -1.046875,1.09375 -0.5,0 -0.84375,-0.3125 -1.234375,-0.671875 -0.375,-0.328125 -0.78125,-0.703125 -1.328125,-0.703125 -0.796875,0 -1.296875,0.8125 -1.296875,1.578125 0,0.265625 0.109375,0.28125 0.125,0.28125 0.109375,0 0.109375,-0.1875 0.125,-0.28125 0.015625,-0.515625 0.390625,-1.09375 1.046875,-1.09375 0.5,0 0.84375,0.3125 1.234375,0.671875 0.359375,0.328125 0.78125,0.703125 1.328125,0.703125 0.796875,0 1.28125,-0.8125 1.28125,-1.578125 z m 0,0"
             id="id-c076de5c-b204-4952-a777-64faf1da6d8a" />
        </g>
      </g>
    </defs>
    <g
       fill="#000000"
       fill-opacity="1"
       id="id-2567ae2e-4f85-416e-b157-75d87ef05511"
       transform="translate(-199.117,-139.403)">
      <g
         transform="translate(198.851,146.215)"
         id="g209">
        <path
           d="M 4.828125,-4.09375 4,-6.078125 c -0.03125,-0.078125 -0.046875,-0.125 -0.046875,-0.125 0,-0.0625 0.15625,-0.25 0.578125,-0.296875 0.109375,-0.015625 0.203125,-0.015625 0.203125,-0.1875 0,-0.125 -0.125,-0.125 -0.15625,-0.125 -0.40625,0 -0.828125,0.03125 -1.25,0.03125 -0.25,0 -0.859375,-0.03125 -1.109375,-0.03125 -0.0625,0 -0.1875,0 -0.1875,0.203125 C 2.03125,-6.5 2.140625,-6.5 2.265625,-6.5 c 0.59375,0 0.65625,0.09375 0.75,0.3125 l 1.171875,2.78125 -2.109375,2.265625 -0.125,0.109375 C 1.46875,-0.5 1,-0.34375 0.484375,-0.3125 c -0.125,0.015625 -0.21875,0.015625 -0.21875,0.203125 0,0.015625 0,0.109375 0.140625,0.109375 0.296875,0 0.625,-0.03125 0.921875,-0.03125 C 1.703125,-0.03125 2.09375,0 2.453125,0 2.515625,0 2.625,0 2.625,-0.203125 2.625,-0.296875 2.53125,-0.3125 2.515625,-0.3125 c -0.09375,0 -0.40625,-0.03125 -0.40625,-0.3125 0,-0.15625 0.15625,-0.3125 0.265625,-0.4375 L 3.40625,-2.140625 4.296875,-3.125 l 1,2.390625 c 0.046875,0.109375 0.0625,0.109375 0.0625,0.140625 0,0.078125 -0.203125,0.25 -0.578125,0.28125 C 4.671875,-0.296875 4.578125,-0.296875 4.578125,-0.125 4.578125,0 4.6875,0 4.71875,0 5,0 5.703125,-0.03125 5.984375,-0.03125 6.234375,-0.03125 6.84375,0 7.09375,0 c 0.0625,0 0.1875,0 0.1875,-0.1875 0,-0.125 -0.109375,-0.125 -0.1875,-0.125 -0.65625,0 -0.6875,-0.03125 -0.859375,-0.4375 C 5.859375,-1.671875 5.1875,-3.234375 4.953125,-3.828125 5.625,-4.53125 6.671875,-5.71875 7,-5.984375 7.28125,-6.234375 7.671875,-6.46875 8.265625,-6.5 c 0.125,-0.015625 0.21875,-0.015625 0.21875,-0.203125 0,0 0,-0.109375 -0.125,-0.109375 -0.296875,0 -0.640625,0.03125 -0.9375,0.03125 -0.375,0 -0.75,-0.03125 -1.109375,-0.03125 -0.0625,0 -0.1875,0 -0.1875,0.203125 0,0.0625 0.046875,0.09375 0.109375,0.109375 0.09375,0.015625 0.40625,0.03125 0.40625,0.3125 0,0.140625 -0.109375,0.265625 -0.1875,0.359375 z m 0,0"
           id="id-b6ff32d3-a182-497d-b306-2937d57a2ca2" />
      </g>
    </g>
    <g
       fill="#000000"
       fill-opacity="1"
       id="id-45f6dbab-6c22-4c75-8cf7-3a923b63adcc"
       transform="translate(-199.117,-139.403)">
      <g
         transform="translate(281.9,146.215)"
         id="g7276">
        <path
           d="M 5.953125,-5.671875 6.09375,-5.8125 C 6.390625,-6.109375 6.71875,-6.453125 7.390625,-6.5 7.5,-6.515625 7.59375,-6.515625 7.59375,-6.6875 c 0,-0.078125 -0.046875,-0.125 -0.125,-0.125 -0.265625,0 -0.546875,0.03125 -0.8125,0.03125 -0.34375,0 -0.6875,-0.03125 -1,-0.03125 -0.0625,0 -0.1875,0 -0.1875,0.1875 0,0.109375 0.09375,0.125 0.140625,0.125 0.078125,0 0.359375,0.015625 0.359375,0.234375 0,0.171875 -0.234375,0.421875 -0.265625,0.46875 L 3.390625,-3.125 2.296875,-6.09375 C 2.234375,-6.234375 2.234375,-6.25 2.234375,-6.265625 2.234375,-6.5 2.71875,-6.5 2.828125,-6.5 c 0.125,0 0.234375,0 0.234375,-0.203125 0,-0.109375 -0.125,-0.109375 -0.15625,-0.109375 -0.28125,0 -0.96875,0.03125 -1.25,0.03125 -0.25,0 -0.875,-0.03125 -1.125,-0.03125 -0.046875,0 -0.1875,0 -0.1875,0.203125 C 0.34375,-6.5 0.453125,-6.5 0.578125,-6.5 c 0.59375,0 0.640625,0.09375 0.734375,0.34375 L 2.53125,-2.875 c 0.015625,0.03125 0.046875,0.140625 0.046875,0.15625 0,0.03125 -0.40625,1.640625 -0.453125,1.828125 C 2,-0.34375 1.984375,-0.3125 1.1875,-0.3125 c -0.1875,0 -0.265625,0 -0.265625,0.203125 C 0.921875,0 1.03125,0 1.0625,0 c 0.265625,0 0.96875,-0.03125 1.25,-0.03125 0.28125,0 1,0.03125 1.28125,0.03125 0.0625,0 0.1875,0 0.1875,-0.203125 C 3.78125,-0.3125 3.6875,-0.3125 3.5,-0.3125 c -0.015625,0 -0.203125,0 -0.375,-0.015625 C 2.90625,-0.34375 2.84375,-0.375 2.84375,-0.484375 c 0,-0.078125 0.09375,-0.421875 0.140625,-0.625 l 0.359375,-1.40625 c 0.046875,-0.203125 0.0625,-0.21875 0.140625,-0.3125 z m 0,0"
           id="id-20fce78f-a2e7-4630-bad2-2a48a405182d" />
      </g>
    </g>
    <g
       fill="#000000"
       fill-opacity="1"
       id="id-4bc67637-195a-43db-942c-a1819e953ec8"
       transform="translate(-199.117,-139.403)">
      <g
         transform="translate(322.387,146.215)"
         id="g5328">
        <path
           d="M 4.828125,-4.09375 4,-6.078125 c -0.03125,-0.078125 -0.046875,-0.125 -0.046875,-0.125 0,-0.0625 0.15625,-0.25 0.578125,-0.296875 0.109375,-0.015625 0.203125,-0.015625 0.203125,-0.1875 0,-0.125 -0.125,-0.125 -0.15625,-0.125 -0.40625,0 -0.828125,0.03125 -1.25,0.03125 -0.25,0 -0.859375,-0.03125 -1.109375,-0.03125 -0.0625,0 -0.1875,0 -0.1875,0.203125 C 2.03125,-6.5 2.140625,-6.5 2.265625,-6.5 c 0.59375,0 0.65625,0.09375 0.75,0.3125 l 1.171875,2.78125 -2.109375,2.265625 -0.125,0.109375 C 1.46875,-0.5 1,-0.34375 0.484375,-0.3125 c -0.125,0.015625 -0.21875,0.015625 -0.21875,0.203125 0,0.015625 0,0.109375 0.140625,0.109375 0.296875,0 0.625,-0.03125 0.921875,-0.03125 C 1.703125,-0.03125 2.09375,0 2.453125,0 2.515625,0 2.625,0 2.625,-0.203125 2.625,-0.296875 2.53125,-0.3125 2.515625,-0.3125 c -0.09375,0 -0.40625,-0.03125 -0.40625,-0.3125 0,-0.15625 0.15625,-0.3125 0.265625,-0.4375 L 3.40625,-2.140625 4.296875,-3.125 l 1,2.390625 c 0.046875,0.109375 0.0625,0.109375 0.0625,0.140625 0,0.078125 -0.203125,0.25 -0.578125,0.28125 C 4.671875,-0.296875 4.578125,-0.296875 4.578125,-0.125 4.578125,0 4.6875,0 4.71875,0 5,0 5.703125,-0.03125 5.984375,-0.03125 6.234375,-0.03125 6.84375,0 7.09375,0 c 0.0625,0 0.1875,0 0.1875,-0.1875 0,-0.125 -0.109375,-0.125 -0.1875,-0.125 -0.65625,0 -0.6875,-0.03125 -0.859375,-0.4375 C 5.859375,-1.671875 5.1875,-3.234375 4.953125,-3.828125 5.625,-4.53125 6.671875,-5.71875 7,-5.984375 7.28125,-6.234375 7.671875,-6.46875 8.265625,-6.5 c 0.125,-0.015625 0.21875,-0.015625 0.21875,-0.203125 0,0 0,-0.109375 -0.125,-0.109375 -0.296875,0 -0.640625,0.03125 -0.9375,0.03125 -0.375,0 -0.75,-0.03125 -1.109375,-0.03125 -0.0625,0 -0.1875,0 -0.1875,0.203125 0,0.0625 0.046875,0.09375 0.109375,0.109375 0.09375,0.015625 0.40625,0.03125 0.40625,0.3125 0,0.140625 -0.109375,0.265625 -0.1875,0.359375 z m 0,0"
           id="id-c74042e3-b6de-48f0-8d5e-498617b12c6c" />
      </g>
    </g>
    <g
       fill="#000000"
       fill-opacity="1"
       id="id-ac952686-d206-48b0-a1aa-2838e1c448a9"
       transform="translate(-199.117,-139.403)">
      <g
         transform="translate(404.399,146.215)"
         id="g6911">
        <path
           d="M 5.953125,-5.671875 6.09375,-5.8125 C 6.390625,-6.109375 6.71875,-6.453125 7.390625,-6.5 7.5,-6.515625 7.59375,-6.515625 7.59375,-6.6875 c 0,-0.078125 -0.046875,-0.125 -0.125,-0.125 -0.265625,0 -0.546875,0.03125 -0.8125,0.03125 -0.34375,0 -0.6875,-0.03125 -1,-0.03125 -0.0625,0 -0.1875,0 -0.1875,0.1875 0,0.109375 0.09375,0.125 0.140625,0.125 0.078125,0 0.359375,0.015625 0.359375,0.234375 0,0.171875 -0.234375,0.421875 -0.265625,0.46875 L 3.390625,-3.125 2.296875,-6.09375 C 2.234375,-6.234375 2.234375,-6.25 2.234375,-6.265625 2.234375,-6.5 2.71875,-6.5 2.828125,-6.5 c 0.125,0 0.234375,0 0.234375,-0.203125 0,-0.109375 -0.125,-0.109375 -0.15625,-0.109375 -0.28125,0 -0.96875,0.03125 -1.25,0.03125 -0.25,0 -0.875,-0.03125 -1.125,-0.03125 -0.046875,0 -0.1875,0 -0.1875,0.203125 C 0.34375,-6.5 0.453125,-6.5 0.578125,-6.5 c 0.59375,0 0.640625,0.09375 0.734375,0.34375 L 2.53125,-2.875 c 0.015625,0.03125 0.046875,0.140625 0.046875,0.15625 0,0.03125 -0.40625,1.640625 -0.453125,1.828125 C 2,-0.34375 1.984375,-0.3125 1.1875,-0.3125 c -0.1875,0 -0.265625,0 -0.265625,0.203125 C 0.921875,0 1.03125,0 1.0625,0 c 0.265625,0 0.96875,-0.03125 1.25,-0.03125 0.28125,0 1,0.03125 1.28125,0.03125 0.0625,0 0.1875,0 0.1875,-0.203125 C 3.78125,-0.3125 3.6875,-0.3125 3.5,-0.3125 c -0.015625,0 -0.203125,0 -0.375,-0.015625 C 2.90625,-0.34375 2.84375,-0.375 2.84375,-0.484375 c 0,-0.078125 0.09375,-0.421875 0.140625,-0.625 l 0.359375,-1.40625 c 0.046875,-0.203125 0.0625,-0.21875 0.140625,-0.3125 z m 0,0"
           id="id-76a8c079-9628-4bcc-9e89-f46dc7a66f90" />
      </g>
    </g>
    <g
       fill="#000000"
       fill-opacity="1"
       id="id-3145c294-5fd3-4555-b16b-c9d6fef8745b"
       transform="translate(-199.117,-139.403)">
      <g
         transform="translate(243.233,178.358)"
         id="g8149">
        <path
           d="M 2.5,-6.921875 1.15625,-5.5625 1.328125,-5.390625 2.5,-6.40625 3.640625,-5.390625 3.8125,-5.5625 Z m 0,0"
           id="id-246c0c68-4b97-4d87-a98d-0a34359f728b" />
      </g>
    </g>
    <g
       fill="#000000"
       fill-opacity="1"
       id="id-8007d9f6-9be6-40bf-b73e-38e1cbd1139a"
       transform="translate(-199.117,-139.403)">
      <g
         transform="translate(240.376,180.876)"
         id="g2563">
        <path
           d="M 4.828125,-4.09375 4,-6.078125 c -0.03125,-0.078125 -0.046875,-0.125 -0.046875,-0.125 0,-0.0625 0.15625,-0.25 0.578125,-0.296875 0.109375,-0.015625 0.203125,-0.015625 0.203125,-0.1875 0,-0.125 -0.125,-0.125 -0.15625,-0.125 -0.40625,0 -0.828125,0.03125 -1.25,0.03125 -0.25,0 -0.859375,-0.03125 -1.109375,-0.03125 -0.0625,0 -0.1875,0 -0.1875,0.203125 C 2.03125,-6.5 2.140625,-6.5 2.265625,-6.5 c 0.59375,0 0.65625,0.09375 0.75,0.3125 l 1.171875,2.78125 -2.109375,2.265625 -0.125,0.109375 C 1.46875,-0.5 1,-0.34375 0.484375,-0.3125 c -0.125,0.015625 -0.21875,0.015625 -0.21875,0.203125 0,0.015625 0,0.109375 0.140625,0.109375 0.296875,0 0.625,-0.03125 0.921875,-0.03125 C 1.703125,-0.03125 2.09375,0 2.453125,0 2.515625,0 2.625,0 2.625,-0.203125 2.625,-0.296875 2.53125,-0.3125 2.515625,-0.3125 c -0.09375,0 -0.40625,-0.03125 -0.40625,-0.3125 0,-0.15625 0.15625,-0.3125 0.265625,-0.4375 L 3.40625,-2.140625 4.296875,-3.125 l 1,2.390625 c 0.046875,0.109375 0.0625,0.109375 0.0625,0.140625 0,0.078125 -0.203125,0.25 -0.578125,0.28125 C 4.671875,-0.296875 4.578125,-0.296875 4.578125,-0.125 4.578125,0 4.6875,0 4.71875,0 5,0 5.703125,-0.03125 5.984375,-0.03125 6.234375,-0.03125 6.84375,0 7.09375,0 c 0.0625,0 0.1875,0 0.1875,-0.1875 0,-0.125 -0.109375,-0.125 -0.1875,-0.125 -0.65625,0 -0.6875,-0.03125 -0.859375,-0.4375 C 5.859375,-1.671875 5.1875,-3.234375 4.953125,-3.828125 5.625,-4.53125 6.671875,-5.71875 7,-5.984375 7.28125,-6.234375 7.671875,-6.46875 8.265625,-6.5 c 0.125,-0.015625 0.21875,-0.015625 0.21875,-0.203125 0,0 0,-0.109375 -0.125,-0.109375 -0.296875,0 -0.640625,0.03125 -0.9375,0.03125 -0.375,0 -0.75,-0.03125 -1.109375,-0.03125 -0.0625,0 -0.1875,0 -0.1875,0.203125 0,0.0625 0.046875,0.09375 0.109375,0.109375 0.09375,0.015625 0.40625,0.03125 0.40625,0.3125 0,0.140625 -0.109375,0.265625 -0.1875,0.359375 z m 0,0"
           id="id-255a6552-7512-4e8d-a937-12fa4d22bf37" />
      </g>
    </g>
    <g
       fill="#000000"
       fill-opacity="1"
       id="id-0cf8d51c-1300-4161-b015-28b6c6a269a1"
       transform="translate(-199.117,-139.403)">
      <g
         transform="translate(365.42,178.358)"
         id="g4277">
        <path
           d="M 4.140625,-6.515625 3.984375,-6.65625 c 0,0 -0.375,0.46875 -0.8125,0.46875 -0.234375,0 -0.484375,-0.140625 -0.65625,-0.25 C 2.25,-6.59375 2.078125,-6.65625 1.90625,-6.65625 c -0.375,0 -0.578125,0.21875 -1.078125,0.78125 l 0.15625,0.140625 c 0,0 0.375,-0.46875 0.8125,-0.46875 0.234375,0 0.484375,0.140625 0.65625,0.234375 0.265625,0.171875 0.453125,0.234375 0.625,0.234375 0.375,0 0.5625,-0.21875 1.0625,-0.78125 z m 0,0"
           id="id-d6f54975-87a7-4b02-b47e-18a502eb56a2" />
      </g>
    </g>
    <g
       fill="#000000"
       fill-opacity="1"
       id="id-f9a180f0-c6ee-47de-92a3-06770e014b6e"
       transform="translate(-199.117,-139.403)">
      <g
         transform="translate(363.912,180.876)"
         id="g8710">
        <path
           d="M 5.953125,-5.671875 6.09375,-5.8125 C 6.390625,-6.109375 6.71875,-6.453125 7.390625,-6.5 7.5,-6.515625 7.59375,-6.515625 7.59375,-6.6875 c 0,-0.078125 -0.046875,-0.125 -0.125,-0.125 -0.265625,0 -0.546875,0.03125 -0.8125,0.03125 -0.34375,0 -0.6875,-0.03125 -1,-0.03125 -0.0625,0 -0.1875,0 -0.1875,0.1875 0,0.109375 0.09375,0.125 0.140625,0.125 0.078125,0 0.359375,0.015625 0.359375,0.234375 0,0.171875 -0.234375,0.421875 -0.265625,0.46875 L 3.390625,-3.125 2.296875,-6.09375 C 2.234375,-6.234375 2.234375,-6.25 2.234375,-6.265625 2.234375,-6.5 2.71875,-6.5 2.828125,-6.5 c 0.125,0 0.234375,0 0.234375,-0.203125 0,-0.109375 -0.125,-0.109375 -0.15625,-0.109375 -0.28125,0 -0.96875,0.03125 -1.25,0.03125 -0.25,0 -0.875,-0.03125 -1.125,-0.03125 -0.046875,0 -0.1875,0 -0.1875,0.203125 C 0.34375,-6.5 0.453125,-6.5 0.578125,-6.5 c 0.59375,0 0.640625,0.09375 0.734375,0.34375 L 2.53125,-2.875 c 0.015625,0.03125 0.046875,0.140625 0.046875,0.15625 0,0.03125 -0.40625,1.640625 -0.453125,1.828125 C 2,-0.34375 1.984375,-0.3125 1.1875,-0.3125 c -0.1875,0 -0.265625,0 -0.265625,0.203125 C 0.921875,0 1.03125,0 1.0625,0 c 0.265625,0 0.96875,-0.03125 1.25,-0.03125 0.28125,0 1,0.03125 1.28125,0.03125 0.0625,0 0.1875,0 0.1875,-0.203125 C 3.78125,-0.3125 3.6875,-0.3125 3.5,-0.3125 c -0.015625,0 -0.203125,0 -0.375,-0.015625 C 2.90625,-0.34375 2.84375,-0.375 2.84375,-0.484375 c 0,-0.078125 0.09375,-0.421875 0.140625,-0.625 l 0.359375,-1.40625 c 0.046875,-0.203125 0.0625,-0.21875 0.140625,-0.3125 z m 0,0"
           id="id-a97111e3-2854-4b0b-8967-81254d516efb" />
      </g>
    </g>
    <path
       fill="none"
       stroke-width="0.39848"
       stroke-linecap="butt"
       stroke-linejoin="miter"
       stroke="#000000"
       stroke-opacity="1"
       stroke-miterlimit="10"
       d="M 13.430252,11.984223 36.465408,31.210785"
       id="id-72a2a5ec-2db0-41c4-a972-08a888d6ecb9" />
    <path
       fill="none"
       stroke-width="0.398465"
       stroke-linecap="round"
       stroke-linejoin="round"
       stroke="#000000"
       stroke-opacity="1"
       stroke-miterlimit="10"
       d="m 10.461502,12.620941 c 1.210938,-0.859375 2.292968,-0.839844 3.121094,-0.507812 -0.472657,-0.757813 -0.6875,-1.820313 -0.05859,-3.1640626"
       id="id-5db4dce7-2df5-40f4-a924-8b26cc1d5dcc" />
    <path
       fill="none"
       stroke-width="0.398465"
       stroke-linecap="round"
       stroke-linejoin="round"
       stroke="#000000"
       stroke-opacity="1"
       stroke-miterlimit="10"
       d="m 36.559158,28.175629 c -0.628906,1.34375 -0.417969,2.40625 0.05859,3.164062 -0.832031,-0.332031 -1.914063,-0.351562 -3.125,0.507812"
       id="id-38c1a19d-f456-4792-be24-f686d2c5d76b" />
    <g
       fill="#000000"
       fill-opacity="1"
       id="id-72a74885-c366-4225-90ab-c7ca6c3691cf"
       transform="translate(-199.117,-139.403)">
      <g
         transform="translate(214.852,165.487)"
         id="g868">
        <path
           d="m 5.671875,-2.390625 c 0,-0.265625 -0.09375,-0.28125 -0.109375,-0.28125 -0.109375,0 -0.125,0.203125 -0.125,0.28125 -0.015625,0.515625 -0.40625,1.09375 -1.046875,1.09375 -0.5,0 -0.84375,-0.3125 -1.234375,-0.671875 -0.375,-0.328125 -0.78125,-0.703125 -1.328125,-0.703125 -0.796875,0 -1.296875,0.8125 -1.296875,1.578125 0,0.265625 0.109375,0.28125 0.125,0.28125 0.109375,0 0.109375,-0.1875 0.125,-0.28125 0.015625,-0.515625 0.390625,-1.09375 1.046875,-1.09375 0.5,0 0.84375,0.3125 1.234375,0.671875 0.359375,0.328125 0.78125,0.703125 1.328125,0.703125 0.796875,0 1.28125,-0.8125 1.28125,-1.578125 z m 0,0"
           id="id-5713afcf-c02e-4074-93c1-72ce1df882b8" />
      </g>
    </g>
    <path
       fill="none"
       stroke-width="0.39848"
       stroke-linecap="butt"
       stroke-linejoin="miter"
       stroke="#000000"
       stroke-opacity="1"
       stroke-miterlimit="10"
       d="M 13.258377,4.3201597 H 77.895096"
       id="id-2133d5da-cba1-4288-976d-5ad9235905e9" />
    <path
       fill="none"
       stroke-width="0.39848"
       stroke-linecap="round"
       stroke-linejoin="round"
       stroke="#000000"
       stroke-opacity="1"
       stroke-miterlimit="10"
       d="m 76.024002,1.9295347 c 0.378906,1.4375 1.222656,2.113281 2.070313,2.3906252 -0.847657,0.2812498 -1.691407,0.9570308 -2.070313,2.3906248"
       id="id-06f79751-1b5d-4a4a-8581-9398958bad21" />
    <path
       fill="none"
       stroke-width="0.39848"
       stroke-linecap="butt"
       stroke-linejoin="miter"
       stroke="#000000"
       stroke-opacity="1"
       stroke-miterlimit="10"
       d="m 136.86775,11.995941 23.13672,19.558594"
       id="id-b83b6f3c-8bb3-4a13-90c5-bc4525598c10" />
    <path
       fill="none"
       stroke-width="0.398463"
       stroke-linecap="round"
       stroke-linejoin="round"
       stroke="#000000"
       stroke-opacity="1"
       stroke-miterlimit="10"
       d="m 133.89119,12.613129 c 1.21484,-0.851563 2.29687,-0.824219 3.12891,-0.488282 -0.47266,-0.761719 -0.67969,-1.824218 -0.0391,-3.1640625"
       id="id-5300ce9d-733d-40f6-b60d-44a32aa4e421" />
    <path
       fill="none"
       stroke-width="0.398463"
       stroke-linecap="round"
       stroke-linejoin="round"
       stroke="#000000"
       stroke-opacity="1"
       stroke-miterlimit="10"
       d="m 160.11775,28.519379 c -0.63672,1.339844 -0.42968,2.402343 0.0391,3.164062 -0.83203,-0.335937 -1.91015,-0.363281 -3.1289,0.488281"
       id="id-ef14bf5a-30db-4de9-b811-73971eaa9990" />
    <path
       fill="none"
       stroke-width="0.39848"
       stroke-linecap="butt"
       stroke-linejoin="miter"
       stroke="#000000"
       stroke-opacity="1"
       stroke-miterlimit="10"
       d="M 54.781814,31.370941 78.984939,10.91391"
       id="id-fc1fe33f-5207-48f1-904c-3a997790cc72" />
    <path
       fill="none"
       stroke-width="0.398464"
       stroke-linecap="round"
       stroke-linejoin="round"
       stroke="#000000"
       stroke-opacity="1"
       stroke-miterlimit="10"
       d="m 74.914628,11.222504 c 1.214843,0.851562 2.296874,0.824218 3.128905,0.488281 -0.472656,0.761718 -0.679688,1.824219 -0.03906,3.164062"
       id="id-1c902ab8-a76a-48bd-8428-c9bb491a3e47" />
    <path
       fill="none"
       stroke-width="0.398464"
       stroke-linecap="round"
       stroke-linejoin="round"
       stroke="#000000"
       stroke-opacity="1"
       stroke-miterlimit="10"
       d="m 76.012283,10.296723 c 1.214844,0.851562 2.296876,0.824218 3.125,0.488281 -0.46875,0.761718 -0.675781,1.824218 -0.03906,3.164062"
       id="id-5f44d0b8-bde5-415e-aafa-f9e8187dfb81" />
    <path
       fill="none"
       stroke-width="0.39848"
       stroke-linecap="butt"
       stroke-linejoin="miter"
       stroke="#000000"
       stroke-opacity="1"
       stroke-miterlimit="10"
       d="M 136.79744,4.3201597 H 200.3951"
       id="id-05a83702-dadd-47bc-a692-56a0c5358d62" />
    <path
       fill="none"
       stroke-width="0.39848"
       stroke-linecap="round"
       stroke-linejoin="round"
       stroke="#000000"
       stroke-opacity="1"
       stroke-miterlimit="10"
       d="m 198.524,1.9295347 c 0.37891,1.4375 1.22266,2.113281 2.07031,2.3906252 -0.84765,0.2812498 -1.6914,0.9570308 -2.07031,2.3906248"
       id="id-f805438d-c669-4511-bdd1-e7bbb7998959" />
    <path
       fill="none"
       stroke-width="0.39848"
       stroke-linecap="butt"
       stroke-linejoin="miter"
       stroke="#000000"
       stroke-opacity="1"
       stroke-miterlimit="10"
       d="M 177.28181,31.718598 201.5826,10.917816"
       id="id-31956da3-6c24-467c-ad80-7132d9cce959" />
    <path
       fill="none"
       stroke-width="0.398451"
       stroke-linecap="round"
       stroke-linejoin="round"
       stroke="#000000"
       stroke-opacity="1"
       stroke-miterlimit="10"
       d="m 197.51619,11.249847 c 1.21875,0.843751 2.30078,0.812501 3.12891,0.46875 -0.46485,0.765625 -0.66407,1.828126 -0.0195,3.164063"
       id="id-2835ade1-4eaa-4835-88d4-7b4b6e5bab8d" />
    <path
       fill="none"
       stroke-width="0.398451"
       stroke-linecap="round"
       stroke-linejoin="round"
       stroke="#000000"
       stroke-opacity="1"
       stroke-miterlimit="10"
       d="m 198.60603,10.320159 c 1.21875,0.843752 2.30078,0.808594 3.12891,0.468751 -0.46484,0.761718 -0.66797,1.824219 -0.0195,3.160156"
       id="id-77e2b272-c219-4351-b833-7cc6d27e844c" />
    <g
       fill="#000000"
       fill-opacity="1"
       id="id-83d22d53-896f-4506-a336-a9cd05153655"
       transform="translate(-199.117,-139.403)">
      <g
         transform="translate(391.043,165.613)"
         id="g522">
        <path
           d="m 5.671875,-2.390625 c 0,-0.265625 -0.09375,-0.28125 -0.109375,-0.28125 -0.109375,0 -0.125,0.203125 -0.125,0.28125 -0.015625,0.515625 -0.40625,1.09375 -1.046875,1.09375 -0.5,0 -0.84375,-0.3125 -1.234375,-0.671875 -0.375,-0.328125 -0.78125,-0.703125 -1.328125,-0.703125 -0.796875,0 -1.296875,0.8125 -1.296875,1.578125 0,0.265625 0.109375,0.28125 0.125,0.28125 0.109375,0 0.109375,-0.1875 0.125,-0.28125 0.015625,-0.515625 0.390625,-1.09375 1.046875,-1.09375 0.5,0 0.84375,0.3125 1.234375,0.671875 0.359375,0.328125 0.78125,0.703125 1.328125,0.703125 0.796875,0 1.28125,-0.8125 1.28125,-1.578125 z m 0,0"
           id="id-3f57abfe-4bd4-42de-aa55-1c625b155d0a" />
      </g>
    </g>
  </g>
</svg>
