<?xml version="1.0" standalone="no"?>
<!DOCTYPE svg PUBLIC "-//W3C//DTD SVG 20010904//EN"
 "http://www.w3.org/TR/2001/REC-SVG-20010904/DTD/svg10.dtd">
<svg version="1.0" xmlns="http://www.w3.org/2000/svg"
 width="1024.000000pt" height="1024.000000pt" viewBox="0 0 1024.000000 1024.000000"
 preserveAspectRatio="xMidYMid meet">

<g transform="translate(0.000000,1024.000000) scale(0.100000,-0.100000)"
fill="#000000" stroke="none">
<path d="M5185 7293 c-44 -2 -323 -8 -620 -15 -692 -15 -876 -21 -845 -30 14
-4 662 -9 1440 -12 1626 -6 2752 -20 2860 -36 120 -17 225 -15 255 4 15 10 25
24 23 33 -7 38 -40 40 -1168 48 -1345 9 -1841 11 -1945 8z"/>
<path d="M1940 7190 c0 -5 7 -10 15 -10 8 0 15 5 15 10 0 6 -7 10 -15 10 -8 0
-15 -4 -15 -10z"/>
<path d="M3888 7195 c-2 -2 -178 -6 -393 -9 -214 -4 -419 -9 -455 -13 -61 -6
-63 -7 -30 -14 123 -30 1122 -55 2690 -68 1291 -12 1647 -16 2033 -27 l228 -7
39 38 c30 30 37 42 29 52 -20 23 -57 16 -71 -14 -25 -53 -40 -55 -355 -44
-159 6 -598 13 -978 16 -1920 17 -2893 33 -2937 50 -50 19 4 25 240 27 293 1
278 1 289 11 7 7 -322 9 -329 2z"/>
<path d="M8345 7163 c-11 -2 -43 -10 -71 -19 -51 -15 -75 -41 -94 -102 -4 -15
-11 -35 -15 -44 -13 -33 10 -18 24 15 22 49 61 105 78 111 9 4 31 4 49 0 26
-5 34 -11 34 -28 0 -22 -41 -107 -100 -206 -18 -30 -46 -80 -63 -110 -17 -30
-38 -67 -49 -82 -10 -14 -18 -29 -18 -32 0 -3 -31 -58 -70 -122 -38 -64 -70
-118 -70 -119 0 -2 -32 -59 -71 -127 -40 -67 -139 -240 -221 -383 -82 -143
-153 -264 -157 -270 -5 -5 -22 -35 -38 -65 -17 -30 -63 -111 -103 -180 -40
-69 -86 -150 -103 -180 -16 -30 -33 -59 -37 -65 -4 -5 -17 -27 -29 -47 -43
-77 -82 -145 -151 -263 -29 -49 -66 -115 -83 -145 -16 -30 -38 -67 -49 -82
-10 -14 -18 -29 -18 -32 0 -4 -18 -36 -40 -72 -22 -36 -40 -67 -40 -69 0 -2
-88 -157 -201 -352 -11 -18 -28 -49 -39 -68 -11 -19 -29 -51 -40 -70 -11 -19
-29 -51 -40 -70 -11 -19 -30 -52 -42 -72 -11 -21 -33 -60 -48 -88 -47 -87 -72
-130 -81 -140 -11 -12 -12 -25 0 -25 5 0 11 8 15 18 3 9 14 31 23 47 10 17 51
86 92 155 41 69 86 145 101 170 15 25 54 90 85 145 82 143 89 154 124 213 17
29 31 55 31 57 0 2 23 40 50 85 28 45 50 83 50 85 0 2 14 28 31 57 18 29 40
67 49 83 10 17 41 71 70 120 53 92 74 128 110 190 50 87 59 103 89 153 17 29
31 55 31 58 0 3 9 19 20 34 11 16 33 52 49 82 30 58 51 94 100 176 17 29 31
55 31 58 0 3 8 18 19 32 10 15 28 44 40 65 11 20 30 53 41 72 11 19 29 51 40
70 11 19 29 51 40 70 50 87 59 103 89 153 17 29 31 55 31 57 0 2 23 40 50 85
28 45 50 83 50 85 0 2 14 28 31 57 30 50 39 66 89 153 11 19 29 51 40 70 50
87 59 103 89 153 17 29 31 54 31 56 0 2 18 34 40 70 22 36 40 70 40 76 0 5 3
10 8 10 4 0 12 10 18 23 23 47 59 112 65 117 10 9 39 90 39 109 0 24 -19 38
-45 34z"/>
<path d="M1986 7108 c-10 -22 10 -58 33 -58 20 0 36 26 21 35 -4 3 -15 2 -23
-1 -11 -4 -17 2 -19 18 -4 19 -6 20 -12 6z"/>
<path d="M8045 6998 c-11 -13 -31 -45 -44 -73 -14 -27 -32 -61 -41 -75 -10
-14 -30 -50 -47 -80 -37 -67 -60 -108 -103 -180 -31 -52 -40 -67 -90 -155 -11
-19 -29 -51 -40 -70 -11 -19 -29 -50 -39 -69 -11 -18 -38 -64 -60 -101 -23
-37 -41 -68 -41 -70 0 -2 -23 -43 -51 -92 -29 -48 -65 -113 -82 -143 -16 -30
-33 -59 -37 -65 -4 -5 -17 -27 -29 -47 -12 -21 -29 -53 -40 -70 -10 -18 -60
-105 -111 -193 -51 -88 -106 -185 -123 -215 -16 -30 -33 -59 -37 -65 -4 -5
-17 -27 -29 -47 -28 -51 -52 -92 -93 -163 -20 -33 -47 -80 -60 -105 -14 -25
-49 -85 -78 -135 -77 -131 -90 -154 -123 -215 -16 -30 -33 -59 -37 -65 -4 -5
-17 -27 -29 -47 -12 -21 -30 -54 -41 -73 -11 -19 -29 -51 -40 -70 -11 -19 -29
-51 -40 -70 -50 -87 -59 -103 -89 -153 -17 -29 -31 -55 -31 -58 0 -3 -8 -18
-18 -32 -11 -15 -32 -52 -49 -82 -17 -30 -40 -72 -52 -92 -11 -21 -30 -54 -41
-73 -11 -19 -29 -51 -40 -70 -11 -19 -29 -51 -40 -70 -11 -19 -29 -51 -40 -70
-11 -19 -29 -51 -40 -70 -11 -19 -29 -51 -40 -70 -11 -19 -29 -51 -40 -70 -55
-96 -65 -113 -88 -155 -14 -25 -58 -103 -98 -173 -41 -71 -74 -130 -74 -132 0
-2 -14 -28 -31 -57 -49 -82 -62 -106 -114 -208 -27 -52 -57 -107 -67 -122 -10
-14 -18 -33 -18 -42 0 -9 -4 -16 -10 -16 -11 0 -14 -33 -4 -43 11 -11 34 5 34
24 0 10 5 19 10 19 6 0 10 5 10 11 0 5 18 37 40 69 22 32 40 61 40 65 0 3 20
36 44 73 39 60 163 268 296 497 26 44 80 136 120 205 75 128 197 337 232 400
11 19 66 114 122 210 108 185 288 495 316 545 26 45 358 623 440 765 40 69
123 213 185 320 61 107 251 436 420 730 169 294 319 559 332 587 39 84 16 147
-32 91z"/>
<path d="M6320 3529 c0 -5 5 -7 10 -4 6 3 10 8 10 11 0 2 -4 4 -10 4 -5 0 -10
-5 -10 -11z"/>
<path d="M6293 3483 c-18 -38 -8 -41 12 -4 8 17 12 31 8 31 -5 0 -14 -12 -20
-27z"/>
<path d="M6220 3359 c0 -5 5 -7 10 -4 6 3 10 8 10 11 0 2 -4 4 -10 4 -5 0 -10
-5 -10 -11z"/>
</g>
</svg>
